<svg width="26" height="21" viewBox="0 0 26 21" fill="none" xmlns="http://www.w3.org/2000/svg">
<path d="M12.9999 1.71638C7.0264 1.71638 2.16656 5.56621 2.16656 10.2982C2.16656 15.0303 7.0264 18.8801 12.9999 18.8801C18.9734 18.8801 23.8333 15.0303 23.8333 10.2982C23.8333 5.56621 18.9734 1.71638 12.9999 1.71638ZM12.9999 17.1637C8.22132 17.1637 4.33323 14.0837 4.33323 10.2982C4.33323 6.51278 8.22132 3.43275 12.9999 3.43275C17.7785 3.43275 21.6666 6.51278 21.6666 10.2982C21.6666 14.0837 17.7785 17.1637 12.9999 17.1637Z" fill="white"/>
<path d="M10.8323 11.6603L8.34174 9.6908L6.81208 10.906L10.8345 14.0856L18.0993 8.33058L16.5675 7.1171L10.8323 11.6603Z" fill="white"/>
</svg>
