<svg width="20" height="18" viewBox="0 0 20 18" fill="none" xmlns="http://www.w3.org/2000/svg">
<path d="M19.25 5.70499C16.94 2.08452 13.56 0 10 0C8.22 0 6.49 0.518636 4.91 1.48609C3.33 2.46352 1.91 3.88977 0.75 5.70499C-0.25 7.27088 -0.25 9.81419 0.75 11.3801C3.06 15.0105 6.44 17.0851 10 17.0851C11.78 17.0851 13.51 16.5664 15.09 15.599C16.67 14.6215 18.09 13.1953 19.25 11.3801C20.25 9.82416 20.25 7.27088 19.25 5.70499ZM10 12.5769C7.76 12.5769 5.96 10.7717 5.96 8.54752C5.96 6.32337 7.76 4.51812 10 4.51812C12.24 4.51812 14.04 6.32337 14.04 8.54752C14.04 10.7717 12.24 12.5769 10 12.5769Z" fill="#B0B0B0"/>
<path d="M9.9999 5.69495C8.4299 5.69495 7.1499 6.97159 7.1499 8.54744C7.1499 10.1133 8.4299 11.39 9.9999 11.39C11.5699 11.39 12.8599 10.1133 12.8599 8.54744C12.8599 6.98156 11.5699 5.69495 9.9999 5.69495Z" fill="#B0B0B0"/>
</svg>
