<svg width="34" height="27" viewBox="0 0 34 27" fill="none" xmlns="http://www.w3.org/2000/svg">
<path d="M32.4832 0.921518C33.0892 1.53631 33.4428 2.3842 33.4664 3.27877C33.49 4.17333 33.1816 5.04133 32.609 5.69192L14.7871 25.9436C14.4983 26.2712 14.1512 26.5334 13.7663 26.7147C13.3815 26.8959 12.9667 26.9925 12.5464 26.9988C12.1262 27.0051 11.7091 26.9209 11.3197 26.7513C10.9303 26.5817 10.5765 26.33 10.2792 26.0111L0.844095 15.8853C0.288555 15.2454 -0.0138859 14.3991 0.000489985 13.5247C0.0148658 12.6503 0.344936 11.816 0.921162 11.1976C1.49739 10.5792 2.27478 10.2249 3.08956 10.2095C3.90434 10.1941 4.69289 10.5187 5.28909 11.1149L12.4388 18.7835L28.0382 1.05653C28.6111 0.406213 29.4011 0.0266704 30.2347 0.00135256C31.0682 -0.0239652 31.877 0.307014 32.4832 0.921518Z" fill="#292D33"/>
</svg>
