<svg width="328" height="512" viewBox="0 0 328 512" fill="none" xmlns="http://www.w3.org/2000/svg">
<path d="M3.28345 5.60957L42.0765 28.3146V57.4528L37.7378 81.2931L23.956 144.489L81.8903 174.384C83.4216 175.141 87.5051 176.427 91.5886 175.519C95.672 174.611 102.648 170.347 105.626 168.329H107.157L109.454 169.464L110.475 170.978L112.261 175.519L123.491 220.929L124.767 224.713L126.298 227.741L129.361 234.931L130.892 240.229L131.658 245.905L132.423 252.338L133.189 260.663L133.699 265.204L134.975 270.88L136.252 274.665L137.017 278.07V281.854V286.017L137.783 289.423L142.122 306.83L145.95 313.263L152.33 320.831L154.882 328.021L155.648 332.562L211.285 306.83L213.582 314.02L217.411 323.859L222.005 331.806L227.364 340.131L231.448 343.537L235.531 344.293L240.38 345.429L242.677 346.564L246.505 350.348L248.547 354.889L250.334 360.187L252.375 372.296L259.011 382.514L268.709 396.137L271.517 402.948L275.855 421.112L277.131 430.194L277.897 437.763V444.196L278.407 447.223L289.892 499.445L294.997 497.931H298.57L301.377 499.445L308.013 505.499H309.799L324.091 497.931" stroke="#BEB2EB" stroke-opacity="0.5" stroke-width="13"/>
</svg>
