<svg width="630" height="665" viewBox="0 0 630 665" fill="none" xmlns="http://www.w3.org/2000/svg">
<path d="M0.734441 1.85965L76.7457 31.8641V70.3698L68.2444 101.874L41.2404 185.387L154.757 224.893C157.758 225.893 165.759 227.593 173.76 226.393C181.761 225.193 195.43 219.558 201.264 216.891H204.264L208.765 218.392L210.765 220.392L214.266 226.393L236.269 286.402L238.77 291.402L241.77 295.403L247.771 304.904L250.771 311.905L252.272 319.407L253.772 327.908L255.272 338.909L256.272 344.91L258.773 352.411L261.273 357.412L262.773 361.913V366.914V372.414L264.273 376.915L272.775 399.918L280.276 408.42L292.778 418.421L297.778 427.923L299.279 433.923L408.295 399.918L412.795 409.42L420.296 422.422L429.298 432.923L439.799 443.925L447.8 448.426L455.802 449.426L465.303 450.926L469.804 452.426L477.305 457.427L481.305 463.428L484.806 470.429L488.807 486.431L501.808 499.933L520.811 517.936L526.312 526.937L534.813 550.941L537.314 562.942L538.814 572.944V581.445L539.814 585.446L562.317 654.456L572.319 652.456H579.32L584.821 654.456L597.823 662.457H601.323L629.327 652.456" stroke="#5932EA" stroke-width="4"/>
</svg>
