<svg width="24" height="24" viewBox="0 0 24 24" fill="none" xmlns="http://www.w3.org/2000/svg">
<g clip-path="url(#clip0_751_1350)">
<path d="M12 22.7503C11.37 22.7503 10.78 22.5104 10.34 22.0604L8.82001 20.5404C8.70001 20.4204 8.38 20.2904 8.22 20.2904H6.06C4.76 20.2904 3.70999 19.2403 3.70999 17.9403V15.7804C3.70999 15.6204 3.57999 15.3004 3.45999 15.1804L1.94 13.6604C1.5 13.2204 1.25 12.6303 1.25 12.0003C1.25 11.3703 1.49 10.7803 1.94 10.3403L3.45999 8.82028C3.57999 8.70028 3.70999 8.3803 3.70999 8.2203V6.06039C3.70999 4.76039 4.76 3.71029 6.06 3.71029H8.22C8.38 3.71029 8.70001 3.58029 8.82001 3.46029L10.34 1.94027C11.22 1.06027 12.78 1.06027 13.66 1.94027L15.18 3.46029C15.3 3.58029 15.62 3.71029 15.78 3.71029H17.94C19.24 3.71029 20.29 4.76039 20.29 6.06039V8.2203C20.29 8.3803 20.42 8.70028 20.54 8.82028L22.06 10.3403C22.5 10.7803 22.75 11.3703 22.75 12.0003C22.75 12.6303 22.51 13.2204 22.06 13.6604L20.54 15.1804C20.42 15.3004 20.29 15.6204 20.29 15.7804V17.9403C20.29 19.2403 19.24 20.2904 17.94 20.2904H15.78C15.62 20.2904 15.3 20.4204 15.18 20.5404L13.66 22.0604C13.22 22.5104 12.63 22.7503 12 22.7503ZM4.51999 14.1203C4.91999 14.5203 5.20999 15.2204 5.20999 15.7804V17.9403C5.20999 18.4103 5.59 18.7904 6.06 18.7904H8.22C8.78 18.7904 9.48001 19.0803 9.88 19.4803L11.4 21.0003C11.72 21.3203 12.28 21.3203 12.6 21.0003L14.12 19.4803C14.52 19.0803 15.22 18.7904 15.78 18.7904H17.94C18.41 18.7904 18.79 18.4103 18.79 17.9403V15.7804C18.79 15.2204 19.08 14.5203 19.48 14.1203L21 12.6003C21.16 12.4403 21.25 12.2303 21.25 12.0003C21.25 11.7703 21.16 11.5604 21 11.4004L19.48 9.88034C19.08 9.48034 18.79 8.7803 18.79 8.2203V6.06039C18.79 5.59039 18.41 5.21029 17.94 5.21029H15.78C15.22 5.21029 14.52 4.92035 14.12 4.52035L12.6 3.00033C12.28 2.68033 11.72 2.68033 11.4 3.00033L9.88 4.52035C9.48001 4.92035 8.78 5.21029 8.22 5.21029H6.06C5.59 5.21029 5.20999 5.59039 5.20999 6.06039V8.2203C5.20999 8.7803 4.91999 9.48034 4.51999 9.88034L3 11.4004C2.84 11.5604 2.75 11.7703 2.75 12.0003C2.75 12.2303 2.84 12.4403 3 12.6003L4.51999 14.1203Z" fill="white"/>
<path d="M15.0002 16C14.4402 16 13.9902 15.55 13.9902 15C13.9902 14.45 14.4402 14 14.9902 14C15.5402 14 15.9902 14.45 15.9902 15C15.9902 15.55 15.5502 16 15.0002 16Z" fill="white"/>
<path d="M9.01001 10C8.45001 10 8 9.55 8 9C8 8.45 8.45 8 9 8C9.55 8 10 8.45 10 9C10 9.55 9.56001 10 9.01001 10Z" fill="white"/>
<path d="M8.99945 15.7495C8.80945 15.7495 8.61945 15.6795 8.46945 15.5295C8.17945 15.2395 8.17945 14.7595 8.46945 14.4695L14.4695 8.46945C14.7595 8.17945 15.2395 8.17945 15.5295 8.46945C15.8195 8.75945 15.8195 9.23951 15.5295 9.52951L9.52945 15.5295C9.37945 15.6795 9.18945 15.7495 8.99945 15.7495Z" fill="white"/>
<path d="M12 21.7503C11.37 21.7503 10.78 21.5104 10.34 21.0604L8.82001 19.5404C8.70001 19.4204 8.38 19.2904 8.22 19.2904H6.06C4.76 19.2904 3.70999 18.2403 3.70999 16.9403V14.7804C3.70999 14.6204 3.57999 14.3004 3.45999 14.1804L1.94 12.6604C1.5 12.2204 1.25 11.6303 1.25 11.0003C1.25 10.3703 1.49 9.7803 1.94 9.3403L3.45999 7.82028C3.57999 7.70028 3.70999 7.3803 3.70999 7.2203V5.06039C3.70999 3.76039 4.76 2.71029 6.06 2.71029H8.22C8.38 2.71029 8.70001 2.58029 8.82001 2.46029L10.34 0.940273C11.22 0.0602734 12.78 0.0602734 13.66 0.940273L15.18 2.46029C15.3 2.58029 15.62 2.71029 15.78 2.71029H17.94C19.24 2.71029 20.29 3.76039 20.29 5.06039V7.2203C20.29 7.3803 20.42 7.70028 20.54 7.82028L22.06 9.3403C22.5 9.7803 22.75 10.3703 22.75 11.0003C22.75 11.6303 22.51 12.2204 22.06 12.6604L20.54 14.1804C20.42 14.3004 20.29 14.6204 20.29 14.7804V16.9403C20.29 18.2403 19.24 19.2904 17.94 19.2904H15.78C15.62 19.2904 15.3 19.4204 15.18 19.5404L13.66 21.0604C13.22 21.5104 12.63 21.7503 12 21.7503ZM4.51999 13.1203C4.91999 13.5203 5.20999 14.2204 5.20999 14.7804V16.9403C5.20999 17.4103 5.59 17.7904 6.06 17.7904H8.22C8.78 17.7904 9.48001 18.0803 9.88 18.4803L11.4 20.0003C11.72 20.3203 12.28 20.3203 12.6 20.0003L14.12 18.4803C14.52 18.0803 15.22 17.7904 15.78 17.7904H17.94C18.41 17.7904 18.79 17.4103 18.79 16.9403V14.7804C18.79 14.2204 19.08 13.5203 19.48 13.1203L21 11.6003C21.16 11.4403 21.25 11.2303 21.25 11.0003C21.25 10.7703 21.16 10.5604 21 10.4004L19.48 8.88034C19.08 8.48034 18.79 7.7803 18.79 7.2203V5.06039C18.79 4.59039 18.41 4.21029 17.94 4.21029H15.78C15.22 4.21029 14.52 3.92035 14.12 3.52035L12.6 2.00033C12.28 1.68033 11.72 1.68033 11.4 2.00033L9.88 3.52035C9.48001 3.92035 8.78 4.21029 8.22 4.21029H6.06C5.59 4.21029 5.20999 4.59039 5.20999 5.06039V7.2203C5.20999 7.7803 4.91999 8.48034 4.51999 8.88034L3 10.4004C2.84 10.5604 2.75 10.7703 2.75 11.0003C2.75 11.2303 2.84 11.4403 3 11.6003L4.51999 13.1203Z" fill="white"/>
<path d="M15.0002 15C14.4402 15 13.9902 14.55 13.9902 14C13.9902 13.45 14.4402 13 14.9902 13C15.5402 13 15.9902 13.45 15.9902 14C15.9902 14.55 15.5502 15 15.0002 15Z" fill="white"/>
<path d="M9.01001 9C8.45001 9 8 8.55 8 8C8 7.45 8.45 7 9 7C9.55 7 10 7.45 10 8C10 8.55 9.56001 9 9.01001 9Z" fill="white"/>
<path d="M8.99945 14.7495C8.80945 14.7495 8.61945 14.6795 8.46945 14.5295C8.17945 14.2395 8.17945 13.7595 8.46945 13.4695L14.4695 7.46945C14.7595 7.17945 15.2395 7.17945 15.5295 7.46945C15.8195 7.75945 15.8195 8.23951 15.5295 8.52951L9.52945 14.5295C9.37945 14.6795 9.18945 14.7495 8.99945 14.7495Z" fill="white"/>
</g>
<defs>
<clipPath id="clip0_751_1350">
<rect width="24" height="24" fill="white"/>
</clipPath>
</defs>
</svg>
