<svg width="28" height="26" viewBox="0 0 28 26" fill="none" xmlns="http://www.w3.org/2000/svg">
<path d="M16.4745 7.31999C16.7052 7.32003 16.9307 7.38359 17.1225 7.50263C17.3143 7.62168 17.4638 7.79085 17.5521 7.98878C17.6404 8.1867 17.6635 8.40449 17.6185 8.6146C17.5735 8.82472 17.4624 9.01773 17.2993 9.16924L13.1751 12.9999L17.2993 16.8306C17.5118 17.0349 17.6294 17.3085 17.6267 17.5926C17.6241 17.8766 17.5014 18.1483 17.2851 18.3492C17.0688 18.5501 16.7761 18.664 16.4703 18.6665C16.1644 18.6689 15.8697 18.5597 15.6496 18.3624L10.7006 13.7658C10.4819 13.5627 10.359 13.2872 10.359 12.9999C10.359 12.7126 10.4819 12.4371 10.7006 12.234L15.6496 7.6374C15.7578 7.53665 15.8864 7.45675 16.0279 7.40228C16.1695 7.34781 16.3212 7.31984 16.4745 7.31999Z" fill="#676767"/>
</svg>
