<svg width="28" height="26" viewBox="0 0 28 26" fill="none" xmlns="http://www.w3.org/2000/svg">
<path d="M11.5255 18.68C11.2948 18.68 11.0693 18.6164 10.8775 18.4974C10.6857 18.3783 10.5362 18.2092 10.4479 18.0112C10.3596 17.8133 10.3365 17.5955 10.3815 17.3854C10.4265 17.1753 10.5376 16.9823 10.7007 16.8308L14.8249 13.0001L10.7007 9.16943C10.4882 8.96511 10.3706 8.69146 10.3733 8.40742C10.3759 8.12337 10.4986 7.85166 10.7149 7.6508C10.9312 7.44994 11.2239 7.33601 11.5297 7.33354C11.8356 7.33107 12.1303 7.44026 12.3504 7.6376L17.2994 12.2342C17.5181 12.4373 17.641 12.7128 17.641 13.0001C17.641 13.2874 17.5181 13.5629 17.2994 13.766L12.3504 18.3626C12.2422 18.4633 12.1136 18.5433 11.9721 18.5977C11.8305 18.6522 11.6788 18.6802 11.5255 18.68Z" fill="#676767"/>
</svg>
