<svg width="18" height="18" viewBox="0 0 18 18" fill="none" xmlns="http://www.w3.org/2000/svg">
<path fill-rule="evenodd" clip-rule="evenodd" d="M15.1731 13.4953L17.9995 16.3022L16.2904 17.9995L13.4458 15.1746C9.86612 17.774 4.8724 17.1852 2.00515 13.8257C-0.862108 10.4662 -0.628558 5.47756 2.54021 2.39673C5.70899 -0.684097 10.7362 -0.810225 14.0576 2.10777C17.3789 5.02577 17.8658 9.99629 15.1731 13.4953ZM8.43915 2.40604C5.10369 2.40604 2.39976 5.09126 2.39976 8.40365C2.39976 11.716 5.10369 14.4013 8.43915 14.4013C11.7746 14.4013 14.4785 11.716 14.4785 8.40365C14.4785 5.09126 11.7746 2.40604 8.43915 2.40604Z" fill="#333333"/>
</svg>
