<svg width="19" height="19" viewBox="0 0 19 19" fill="none" xmlns="http://www.w3.org/2000/svg">
<path d="M15.8096 16.9297L13.1528 14.2728C12.0065 14.7947 10.7594 15.0577 9.50004 15.0431C8.20161 15.0593 6.9166 14.779 5.74279 14.2238C4.83291 13.7798 4.01588 13.1667 3.33533 12.4172C2.61293 11.6428 2.04515 10.7375 1.66254 9.75005L1.58337 9.50146L1.6665 9.2513C2.23872 7.7917 3.20174 6.5178 4.45 5.56926L2.37504 3.4943L3.49367 2.37646L16.9275 15.8103L15.8112 16.9297H15.8096ZM5.57021 6.69026C4.5584 7.39952 3.75939 8.37153 3.25933 9.50146C4.33158 11.9753 6.8051 13.5442 9.50004 13.4598C10.3312 13.4666 11.1574 13.3328 11.9439 13.064L10.5189 11.639C10.2017 11.7945 9.85329 11.8757 9.50004 11.8765C8.19178 11.8683 7.13325 10.8097 7.12504 9.50146C7.12542 9.14741 7.20665 8.79811 7.36254 8.48022L5.57021 6.69026ZM15.7162 12.3594L14.6142 11.2582C15.0778 10.734 15.4578 10.1415 15.7407 9.50146C14.6699 7.02638 12.1955 5.4569 9.50004 5.54313C9.3045 5.54313 9.10817 5.55026 8.91817 5.56371L7.52087 4.16484C8.17133 4.02569 8.83487 3.95695 9.50004 3.9598C10.7985 3.94368 12.0835 4.22392 13.2573 4.77917C14.1672 5.22309 14.9842 5.8362 15.6648 6.58576C16.3868 7.35919 16.9546 8.26336 17.3375 9.24972L17.4167 9.50146L17.3336 9.75163C16.9629 10.7159 16.4146 11.6021 15.717 12.3641L15.7162 12.3594Z" fill="#2E3A59"/>
</svg>
