<svg width="7" height="12" viewBox="0 0 7 12" fill="none" xmlns="http://www.w3.org/2000/svg">
<path d="M6.7678 5.3839L6.74719 5.36585L1.46029 0.214764C1.29959 0.0757857 1.08233 -0.0014828 0.856484 2.1562e-05C0.629459 -0.000833657 0.411554 0.0781659 0.251648 0.219277C0.0908876 0.35976 0.000543519 0.550484 0.000543519 0.749369C0.000543519 0.948254 0.0908876 1.13897 0.251648 1.27946L4.92341 5.90001L4.84819 5.9749L0.25577 10.5567C0.0930515 10.6967 0.00097628 10.8878 7.71867e-06 11.0876C-0.000960843 11.2874 0.0892596 11.4792 0.250618 11.6204C0.587749 11.9046 1.1211 11.9046 1.45823 11.6204L6.74204 6.43506C7.07564 6.14911 7.08709 5.68213 6.7678 5.38392V5.3839Z" fill="#171930"/>
</svg>
