<svg width="634" height="674" viewBox="0 0 634 674" fill="none" xmlns="http://www.w3.org/2000/svg">
<path d="M2.38998 6.05544L78.4976 36.0979V74.6524L69.9856 106.197L42.9473 189.815L156.608 229.371C159.612 230.373 167.624 232.075 175.635 230.873C183.646 229.672 197.332 224.03 203.174 221.36H206.178L210.685 222.862L212.687 224.865L216.192 230.873L238.223 290.958L240.727 295.965L243.731 299.971L249.74 309.485L252.744 316.494L254.246 324.005L255.748 332.517L257.25 343.533L258.252 349.541L260.755 357.052L263.259 362.059L264.761 366.565V371.572V377.08L266.263 381.586L274.775 404.619L282.286 413.131L294.803 423.145L299.811 432.659L301.313 438.667L410.467 404.619L414.973 414.133L422.484 427.151L431.497 437.666L442.012 448.681L450.023 453.188L458.034 454.189L467.548 455.691L472.054 457.193L479.565 462.2L483.57 468.209L487.075 475.219L491.081 491.242L504.099 504.761L523.126 522.786L528.634 531.799L537.146 555.833L539.65 567.85L541.152 577.864V586.376L542.153 590.382L564.685 659.479L574.699 657.477H581.709L587.217 659.479L600.235 667.491H603.74L631.78 657.477" stroke="#BEB2EB" stroke-opacity="0.5" stroke-width="13"/>
</svg>
