<svg width="7" height="12" viewBox="0 0 7 12" fill="none" xmlns="http://www.w3.org/2000/svg">
<path d="M0.232199 6.44943L0.252807 6.46747L5.53971 11.6186C5.70041 11.7575 5.91767 11.8348 6.14352 11.8333C6.37054 11.8342 6.58845 11.7552 6.74835 11.614C6.90911 11.4736 6.99946 11.2828 6.99946 11.084C6.99946 10.8851 6.90911 10.6944 6.74835 10.5539L2.07659 5.93331L2.15181 5.85842L6.74423 1.27666C6.90695 1.13663 6.99902 0.945486 6.99999 0.745715C7.00096 0.545943 6.91074 0.354116 6.74938 0.212882C6.41225 -0.0712884 5.8789 -0.0712884 5.54177 0.212882L0.257958 5.39826C-0.0756391 5.68421 -0.0870865 6.15119 0.232199 6.44941V6.44943Z" fill="#171930"/>
</svg>
