<svg width="395" height="52" viewBox="0 0 395 52" fill="none" xmlns="http://www.w3.org/2000/svg">
<rect x="3.65735" width="391.343" height="52" rx="3" fill="#F5F6F9"/>
<mask id="mask0_477_1701" style="mask-type:alpha" maskUnits="userSpaceOnUse" x="0" y="0" width="392" height="52">
<rect width="391.343" height="52" rx="3" fill="black"/>
</mask>
<g mask="url(#mask0_477_1701)">
<path d="M392.414 39.3506L394.999 40.3442L358.425 54.3983L355.839 53.4046L392.414 39.3506Z" fill="#C4C4C4"/>
<path d="M392.413 26.7021L395 27.6961L325.51 54.3985L322.923 53.4045L392.413 26.7021Z" fill="#C4C4C4"/>
<path d="M396.073 12.6475L398.659 13.6414L292.596 54.3978L290.009 53.4039L396.073 12.6475Z" fill="#C4C4C4"/>
<path d="M399.729 -0.000976562L402.316 0.992996L259.678 55.8035L257.091 54.8095L399.729 -0.000976562Z" fill="#C4C4C4"/>
<path d="M377.786 -4.2168L380.372 -3.22317L226.761 55.8025L224.175 54.8088L377.786 -4.2168Z" fill="#C4C4C4"/>
<path d="M341.209 -2.81152L343.796 -1.81756L190.186 57.2091L187.599 56.2152L341.209 -2.81152Z" fill="#C4C4C4"/>
<path d="M308.293 -4.21582L310.879 -3.22219L153.61 57.2088L151.025 56.2152L308.293 -4.21582Z" fill="#C4C4C4"/>
<path d="M275.379 -4.2168L277.964 -3.22352L117.037 58.6133L114.452 57.62L275.379 -4.2168Z" fill="#C4C4C4"/>
<path d="M246.117 -4.21582L248.703 -3.22219L91.4346 57.2088L88.8489 56.2152L246.117 -4.21582Z" fill="#C4C4C4"/>
<path d="M205.886 -2.81152L208.471 -1.81824L51.2018 58.6131L48.617 57.6198L205.886 -2.81152Z" fill="#C4C4C4"/>
<path d="M172.97 -4.2168L175.555 -3.22352L18.2851 57.2079L15.7003 56.2146L172.97 -4.2168Z" fill="#C4C4C4"/>
<path d="M143.712 -4.2168L146.297 -3.22316L-7.31363 55.8025L-9.89942 54.8088L143.712 -4.2168Z" fill="#C4C4C4"/>
<path d="M107.135 -4.21582L109.721 -3.22218L-7.31575 41.7494L-9.90151 40.7557L107.135 -4.21582Z" fill="#C4C4C4"/>
<path d="M77.8766 -4.2168L80.4623 -3.22316L-10.9729 31.9106L-13.5586 30.9169L77.8766 -4.2168Z" fill="#C4C4C4"/>
<path d="M44.9617 -4.21582L47.5466 -3.22255L-3.65621 16.4528L-6.2411 15.4595L44.9617 -4.21582Z" fill="#C4C4C4"/>
</g>
</svg>
