<svg width="30" height="24" viewBox="0 0 30 24" fill="none" xmlns="http://www.w3.org/2000/svg">
<path d="M27.3813 14.9443C26.8913 14.7222 26.4319 14.5841 25.9314 14.5877C24.5321 14.5955 23.379 15.5123 23.0859 16.8739C23.0541 17.0234 23.0309 17.1104 22.8391 17.1423C20.9173 17.4604 19.8624 19.4837 20.7398 21.1244C20.7551 21.16 20.7678 21.1965 20.778 21.2337C20.6711 21.2967 20.5655 21.2685 20.4655 21.2685C14.748 21.2685 9.03022 21.2685 3.31227 21.2685C1.36428 21.2685 0 19.9477 0 18.0704C0 14.2485 0 10.4262 0 6.60352C0 4.67516 1.36303 3.37178 3.37477 3.36878C4.60406 3.36878 5.83273 3.35557 7.06202 3.37478C7.412 3.38019 7.61886 3.28713 7.76072 2.96894C7.95758 2.52948 8.19132 2.10322 8.43193 1.68357C9.05063 0.604719 10.0031 0.0241704 11.2917 0.0109625C12.8641 -0.00584764 14.4346 0.000155963 16.0095 0.00615957C17.4032 0.0103621 18.41 0.624531 19.0375 1.81565C19.2537 2.22569 19.4749 2.63454 19.6693 3.05359C19.778 3.28773 19.9293 3.37778 20.1974 3.37538C21.4785 3.36398 22.7597 3.36758 24.0402 3.36938C26.0107 3.37238 27.3769 4.68057 27.38 6.57591C27.3846 9.26752 27.3846 11.9587 27.38 14.6496L27.3813 14.9443ZM8.83815 11.8687C8.83002 14.4502 11.0086 16.5641 13.6791 16.5707C16.3389 16.5773 18.535 14.4827 18.5494 11.9257C18.5644 9.34417 16.3664 7.24291 13.6603 7.24291C11.0342 7.24951 8.84627 9.34777 8.83815 11.8687Z" fill="#646464"/>
<path d="M24.487 21.9972C24.487 21.2768 24.487 21.2768 23.717 21.2726C23.4583 21.2726 23.1977 21.293 22.9414 21.2234C22.2508 21.0343 21.7927 20.3829 21.8852 19.7165C21.9258 19.3854 22.0893 19.0795 22.3458 18.8549C22.6023 18.6304 22.9345 18.5023 23.2814 18.4941C23.5833 18.4863 23.8864 18.4791 24.187 18.4941C24.4132 18.5067 24.5076 18.4503 24.4907 18.2156C24.4701 17.9268 24.4801 17.6356 24.4907 17.3457C24.4981 16.9827 24.6532 16.6371 24.9228 16.3827C25.1924 16.1284 25.555 15.9857 25.9328 15.9852C26.3107 15.9848 26.6737 16.1266 26.944 16.3802C27.2143 16.6339 27.3703 16.9792 27.3787 17.3421C27.388 17.6518 27.3899 17.9622 27.3787 18.272C27.373 18.4437 27.4374 18.4983 27.613 18.4929C27.9349 18.4827 28.258 18.4845 28.5805 18.4929C28.9566 18.4991 29.3153 18.646 29.5804 18.9024C29.8455 19.1588 29.996 19.5044 29.9999 19.8657C30.0038 20.2271 29.8608 20.5756 29.6013 20.8372C29.3419 21.0989 28.9864 21.2529 28.6105 21.2666C28.278 21.2804 27.9442 21.281 27.6105 21.272C27.4318 21.2672 27.3749 21.332 27.3805 21.4977C27.3905 21.7979 27.3868 22.0981 27.3805 22.3983C27.3612 23.1907 26.7356 23.7845 25.9281 23.7839C25.1207 23.7833 24.5088 23.1835 24.4907 22.3869C24.4838 22.2572 24.487 22.1269 24.487 21.9972Z" fill="#646464"/>
</svg>
