<svg width="30" height="25" viewBox="0 0 30 25" fill="none" xmlns="http://www.w3.org/2000/svg">
<path d="M19.7729 12.2299L29.012 4.69713C30.3299 3.62259 30.3299 1.88045 29.012 0.805906C27.694 -0.268635 25.5573 -0.268635 24.2393 0.805906L15.0002 8.3387L5.76111 0.805906C4.44317 -0.268635 2.3064 -0.268635 0.988457 0.805906C-0.329486 1.88045 -0.329486 3.62259 0.988457 4.69713L10.2276 12.2299L0.988457 19.7627C-0.329486 20.8373 -0.329486 22.5794 0.988457 23.6539C1.64743 24.1912 2.51109 24.4598 3.37475 24.4598C4.23841 24.4598 5.10214 24.1912 5.76104 23.6539L15.0002 16.1211L24.2393 23.6539C24.8983 24.1912 25.7619 24.4598 26.6256 24.4598C27.4893 24.4598 28.3529 24.1912 29.0119 23.6539C30.3298 22.5794 30.3298 20.8373 29.0119 19.7627L19.7729 12.2299Z" fill="white"/>
</svg>
