<svg width="75" height="112" viewBox="0 0 75 112" fill="none" xmlns="http://www.w3.org/2000/svg">
<path fill-rule="evenodd" clip-rule="evenodd" d="M30.5556 77.4776H28.7037V99.6141H30.5556V77.4776ZM31.9444 76.4235C31.9444 76.1324 31.7372 75.8965 31.4815 75.8965H27.7778C27.5221 75.8965 27.3148 76.1324 27.3148 76.4235V100.668C27.3148 100.959 27.5221 101.195 27.7778 101.195H31.4815C31.7372 101.195 31.9444 100.959 31.9444 100.668V76.4235Z" fill="black"/>
<path fill-rule="evenodd" clip-rule="evenodd" d="M46.7593 77.4776H44.9074V99.6141H46.7593V77.4776ZM48.1481 76.4235C48.1481 76.1324 47.9409 75.8965 47.6852 75.8965H43.9815C43.7258 75.8965 43.5185 76.1324 43.5185 76.4235V100.668C43.5185 100.959 43.7258 101.195 43.9815 101.195H47.6852C47.9409 101.195 48.1481 100.959 48.1481 100.668V76.4235Z" fill="black"/>
<path fill-rule="evenodd" clip-rule="evenodd" d="M71.2963 68.5176H3.7037L3.7037 70.0988L71.2963 70.0988V68.5176ZM72.6852 67.4635C72.6852 67.1724 72.4779 66.9365 72.2222 66.9365L2.77778 66.9365C2.52209 66.9365 2.31481 67.1724 2.31481 67.4635L2.31481 71.1529C2.31481 71.444 2.52209 71.68 2.77778 71.68L72.2222 71.68C72.4779 71.68 72.6852 71.444 72.6852 71.153V67.4635Z" fill="black"/>
<path fill-rule="evenodd" clip-rule="evenodd" d="M69.9074 6.32471L5.09259 6.32471L5.09259 66.9365H69.9074V6.32471ZM71.2963 5.27059C71.2963 4.97951 71.089 4.74353 70.8333 4.74353L4.16667 4.74353C3.91098 4.74353 3.7037 4.9795 3.7037 5.27059L3.7037 67.9906C3.7037 68.2817 3.91097 68.5176 4.16666 68.5176L70.8333 68.5177C71.089 68.5177 71.2963 68.2817 71.2963 67.9906V5.27059Z" fill="black"/>
<path fill-rule="evenodd" clip-rule="evenodd" d="M64.8148 77.4776H55.0926V93.2894H64.8148V77.4776ZM66.2037 76.4235C66.2037 76.1324 65.9964 75.8965 65.7407 75.8965H54.1667C53.911 75.8965 53.7037 76.1324 53.7037 76.4235V94.3435C53.7037 94.6346 53.911 94.8706 54.1667 94.8706H65.7407C65.9964 94.8706 66.2037 94.6346 66.2037 94.3435V76.4235Z" fill="black"/>
<path fill-rule="evenodd" clip-rule="evenodd" d="M20.3704 77.4776H10.1852V93.2894H20.3704V77.4776ZM21.7593 76.4235C21.7593 76.1324 21.552 75.8965 21.2963 75.8965H9.25926C9.00357 75.8965 8.7963 76.1324 8.7963 76.4235L8.7963 94.3435C8.7963 94.6346 9.00357 94.8706 9.25926 94.8706H21.2963C21.552 94.8706 21.7593 94.6346 21.7593 94.3435V76.4235Z" fill="black"/>
<path fill-rule="evenodd" clip-rule="evenodd" d="M20.3704 106.466H10.1852V110.155H20.3704V106.466ZM21.7593 105.412C21.7593 105.121 21.552 104.885 21.2963 104.885H9.25926C9.00357 104.885 8.7963 105.121 8.7963 105.412V111.209C8.7963 111.5 9.00357 111.736 9.25926 111.736H21.2963C21.552 111.736 21.7593 111.5 21.7593 111.209V105.412Z" fill="black"/>
<path fill-rule="evenodd" clip-rule="evenodd" d="M65.2778 106.466H55.0926V110.155H65.2778V106.466ZM66.6667 105.412C66.6667 105.121 66.4594 104.885 66.2037 104.885H54.1667C53.911 104.885 53.7037 105.121 53.7037 105.412V111.209C53.7037 111.5 53.911 111.736 54.1667 111.736H66.2037C66.4594 111.736 66.6667 111.5 66.6667 111.209V105.412Z" fill="black"/>
<path fill-rule="evenodd" clip-rule="evenodd" d="M43.5185 77.4776H31.9444V81.1671H43.5185V77.4776ZM44.9074 76.4235C44.9074 76.1324 44.7001 75.8965 44.4444 75.8965H31.0185C30.7628 75.8965 30.5556 76.1324 30.5556 76.4235V82.2212C30.5556 82.5123 30.7628 82.7482 31.0185 82.7482H44.4444C44.7001 82.7482 44.9074 82.5123 44.9074 82.2212V76.4235Z" fill="black"/>
<path fill-rule="evenodd" clip-rule="evenodd" d="M69.9074 63.7741L5.09259 63.7741L5.09259 66.9365H69.9074V63.7741ZM71.2963 62.72C71.2963 62.4289 71.089 62.1929 70.8333 62.1929L4.16667 62.1929C3.91098 62.1929 3.7037 62.4289 3.7037 62.72L3.7037 67.9906C3.7037 68.2817 3.91097 68.5176 4.16666 68.5176L70.8333 68.5177C71.089 68.5177 71.2963 68.2817 71.2963 67.9906V62.72Z" fill="black"/>
<path fill-rule="evenodd" clip-rule="evenodd" d="M69.9074 1.58118L5.09259 1.58118V4.74353L69.9074 4.74354V1.58118ZM71.2963 0.527062C71.2963 0.235976 71.089 3.33026e-06 70.8333 3.31754e-06L4.16667 0C3.91098 -1.2724e-08 3.7037 0.235972 3.7037 0.527059L3.7037 5.79765C3.7037 6.08874 3.91098 6.32471 4.16667 6.32471L70.8333 6.32471C71.089 6.32471 71.2963 6.08874 71.2963 5.79765V0.527062Z" fill="black"/>
<path fill-rule="evenodd" clip-rule="evenodd" d="M43.5185 82.7482H31.9444V99.6141H43.5185V82.7482ZM44.9074 81.6941C44.9074 81.403 44.7001 81.1671 44.4444 81.1671H31.0185C30.7628 81.1671 30.5556 81.403 30.5556 81.6941V100.668C30.5556 100.959 30.7628 101.195 31.0185 101.195H44.4444C44.7001 101.195 44.9074 100.959 44.9074 100.668V81.6941Z" fill="black"/>
<path fill-rule="evenodd" clip-rule="evenodd" d="M43.5185 82.7482H38.4259V99.6141H43.5185V82.7482ZM44.9074 81.6941C44.9074 81.403 44.7001 81.1671 44.4444 81.1671H37.5C37.2443 81.1671 37.037 81.403 37.037 81.6941V100.668C37.037 100.959 37.2443 101.195 37.5 101.195H44.4444C44.7001 101.195 44.9074 100.959 44.9074 100.668V81.6941Z" fill="black"/>
<path fill-rule="evenodd" clip-rule="evenodd" d="M21.7593 46.3812H10.1852V59.5577H21.7593V46.3812ZM23.1481 45.3271C23.1481 45.036 22.9409 44.8 22.6852 44.8H9.25926C9.00357 44.8 8.7963 45.036 8.7963 45.3271L8.7963 60.6118C8.7963 60.9029 9.00357 61.1388 9.25926 61.1388H22.6852C22.9409 61.1388 23.1481 60.9029 23.1481 60.6118V45.3271Z" fill="black"/>
<path fill-rule="evenodd" clip-rule="evenodd" d="M21.7593 26.3529L10.1852 26.3529V39.0024H21.7593V26.3529ZM23.1481 25.2988C23.1481 25.0077 22.9409 24.7718 22.6852 24.7718L9.25926 24.7718C9.00357 24.7718 8.7963 25.0077 8.7963 25.2988L8.7963 40.0565C8.7963 40.3476 9.00357 40.5835 9.25926 40.5835H22.6852C22.9409 40.5835 23.1481 40.3476 23.1481 40.0565V25.2988Z" fill="black"/>
<path fill-rule="evenodd" clip-rule="evenodd" d="M21.7593 12.6494H10.1852V18.9741L21.7593 18.9741V12.6494ZM23.1481 11.5953C23.1481 11.3042 22.9409 11.0682 22.6852 11.0682H9.25926C9.00357 11.0682 8.7963 11.3042 8.7963 11.5953L8.7963 20.0282C8.7963 20.3193 9.00357 20.5553 9.25926 20.5553L22.6852 20.5553C22.9409 20.5553 23.1481 20.3193 23.1481 20.0282V11.5953Z" fill="black"/>
<path fill-rule="evenodd" clip-rule="evenodd" d="M45.3704 46.3812H37.5V59.5577H45.3704V46.3812ZM46.7593 45.3271C46.7593 45.036 46.552 44.8 46.2963 44.8H36.5741C36.3184 44.8 36.1111 45.036 36.1111 45.3271V60.6118C36.1111 60.9029 36.3184 61.1388 36.5741 61.1388H46.2963C46.552 61.1388 46.7593 60.9029 46.7593 60.6118V45.3271Z" fill="black"/>
<path fill-rule="evenodd" clip-rule="evenodd" d="M45.3704 26.3529L37.5 26.3529V39.0024H45.3704V26.3529ZM46.7593 25.2988C46.7593 25.0077 46.552 24.7718 46.2963 24.7718L36.5741 24.7718C36.3184 24.7718 36.1111 25.0077 36.1111 25.2988V40.0565C36.1111 40.3476 36.3184 40.5835 36.5741 40.5835H46.2963C46.552 40.5835 46.7593 40.3476 46.7593 40.0565V25.2988Z" fill="black"/>
<path fill-rule="evenodd" clip-rule="evenodd" d="M45.3704 12.6494H37.5V18.9741H45.3704V12.6494ZM46.7593 11.5953C46.7593 11.3042 46.552 11.0682 46.2963 11.0682H36.5741C36.3184 11.0682 36.1111 11.3042 36.1111 11.5953V20.0282C36.1111 20.3193 36.3184 20.5553 36.5741 20.5553H46.2963C46.552 20.5553 46.7593 20.3193 46.7593 20.0282V11.5953Z" fill="black"/>
<path fill-rule="evenodd" clip-rule="evenodd" d="M64.8148 46.3812H56.9444V59.5577H64.8148V46.3812ZM66.2037 45.3271C66.2037 45.036 65.9964 44.8 65.7407 44.8H56.0185C55.7628 44.8 55.5556 45.036 55.5556 45.3271V60.6118C55.5556 60.9029 55.7628 61.1388 56.0185 61.1388H65.7407C65.9964 61.1388 66.2037 60.9029 66.2037 60.6118V45.3271Z" fill="black"/>
<path fill-rule="evenodd" clip-rule="evenodd" d="M64.8148 26.3529L56.9444 26.3529V39.0024H64.8148V26.3529ZM66.2037 25.2988C66.2037 25.0077 65.9964 24.7718 65.7407 24.7718L56.0185 24.7718C55.7628 24.7718 55.5556 25.0077 55.5556 25.2988V40.0565C55.5556 40.3476 55.7628 40.5835 56.0185 40.5835H65.7407C65.9964 40.5835 66.2037 40.3476 66.2037 40.0565V25.2988Z" fill="black"/>
<path fill-rule="evenodd" clip-rule="evenodd" d="M64.8148 12.6494H56.9444V18.9741H64.8148V12.6494ZM66.2037 11.5953C66.2037 11.3042 65.9964 11.0682 65.7407 11.0682H56.0185C55.7628 11.0682 55.5556 11.3042 55.5556 11.5953V20.0282C55.5556 20.3193 55.7628 20.5553 56.0185 20.5553H65.7407C65.9964 20.5553 66.2037 20.3193 66.2037 20.0282V11.5953Z" fill="black"/>
<path fill-rule="evenodd" clip-rule="evenodd" d="M46.7593 102.249V101.195L28.7037 101.195V102.249H46.7593ZM47.6852 103.831C47.9409 103.831 48.1481 103.595 48.1481 103.304V100.141C48.1481 99.8501 47.9409 99.6141 47.6852 99.6141L27.7778 99.6141C27.5221 99.6141 27.3148 99.8501 27.3148 100.141V103.304C27.3148 103.595 27.5221 103.831 27.7778 103.831H47.6852Z" fill="black"/>
<path fill-rule="evenodd" clip-rule="evenodd" d="M46.7593 104.885V103.831L28.7037 103.831V104.885H46.7593ZM47.6852 106.466C47.9409 106.466 48.1481 106.23 48.1481 105.939V102.776C48.1481 102.485 47.9409 102.249 47.6852 102.249L27.7778 102.249C27.5221 102.249 27.3148 102.485 27.3148 102.776V105.939C27.3148 106.23 27.5221 106.466 27.7778 106.466H47.6852Z" fill="black"/>
<path fill-rule="evenodd" clip-rule="evenodd" d="M27.3148 102.249V101.195L5.09259 101.195V102.249H27.3148ZM28.2407 103.831C28.4964 103.831 28.7037 103.595 28.7037 103.304V100.141C28.7037 99.8501 28.4964 99.6141 28.2407 99.6141L4.16667 99.6141C3.91098 99.6141 3.7037 99.8501 3.7037 100.141L3.7037 103.304C3.7037 103.595 3.91098 103.831 4.16667 103.831H28.2407Z" fill="black"/>
<path fill-rule="evenodd" clip-rule="evenodd" d="M69.9074 102.249V101.195L48.1481 101.195V102.249H69.9074ZM70.8333 103.831C71.089 103.831 71.2963 103.595 71.2963 103.304V100.141C71.2963 99.8501 71.089 99.6141 70.8333 99.6141L47.2222 99.6141C46.9665 99.6141 46.7593 99.8501 46.7593 100.141V103.304C46.7593 103.595 46.9665 103.831 47.2222 103.831H70.8333Z" fill="black"/>
<path fill-rule="evenodd" clip-rule="evenodd" d="M46.7593 107.52V106.466L28.7037 106.466V107.52H46.7593ZM47.6852 109.101C47.9409 109.101 48.1481 108.865 48.1481 108.574V105.412C48.1481 105.121 47.9409 104.885 47.6852 104.885L27.7778 104.885C27.5221 104.885 27.3148 105.121 27.3148 105.412V108.574C27.3148 108.865 27.5221 109.101 27.7778 109.101H47.6852Z" fill="black"/>
<path fill-rule="evenodd" clip-rule="evenodd" d="M46.7593 110.155V109.101L28.7037 109.101V110.155H46.7593ZM47.6852 111.736C47.9409 111.736 48.1481 111.5 48.1481 111.209V108.047C48.1481 107.756 47.9409 107.52 47.6852 107.52L27.7778 107.52C27.5221 107.52 27.3148 107.756 27.3148 108.047V111.209C27.3148 111.5 27.5221 111.736 27.7778 111.736H47.6852Z" fill="black"/>
<path fill-rule="evenodd" clip-rule="evenodd" d="M44.342 75.8965L38.9189 73.8068C38.1487 73.5101 37.3142 73.5101 36.5441 73.8068L31.1209 75.8965H44.342ZM39.3641 72.3091C38.3052 71.9011 37.1578 71.9011 36.0988 72.3091L28.0122 75.4251C27.0196 75.8075 27.2611 77.4776 28.309 77.4776H47.1539C48.2019 77.4776 48.4434 75.8075 47.4508 75.4251L39.3641 72.3091Z" fill="black"/>
<path fill-rule="evenodd" clip-rule="evenodd" d="M75 112H0V110.419H75V112Z" fill="black"/>
<path fill-rule="evenodd" clip-rule="evenodd" d="M7.63889 43.4824H24.3056V46.9082H22.9167V45.0635H9.02778V47.4353H7.63889V43.4824Z" fill="black"/>
<path fill-rule="evenodd" clip-rule="evenodd" d="M35.4167 44.0094H47.4537V47.4353H46.0648V45.5906H36.8056V47.9624H35.4167V44.0094Z" fill="black"/>
<path fill-rule="evenodd" clip-rule="evenodd" d="M54.8611 43.4824H66.8981V46.9082H65.5093V45.0635H56.25V47.4353H54.8611V43.4824Z" fill="black"/>
<path fill-rule="evenodd" clip-rule="evenodd" d="M35.4167 23.9812H47.4537V27.4071H46.0648V25.5624H36.8056V27.9341H35.4167V23.9812Z" fill="black"/>
<path fill-rule="evenodd" clip-rule="evenodd" d="M54.8611 23.9812H66.8981V27.4071H65.5093V25.5624H56.25V27.9341H54.8611V23.9812Z" fill="black"/>
<path fill-rule="evenodd" clip-rule="evenodd" d="M7.63889 23.9812H24.3056V27.4071H22.9167V25.5624H9.02778V27.9341H7.63889V23.9812Z" fill="black"/>
<path fill-rule="evenodd" clip-rule="evenodd" d="M3.7037 110.946V71.68H5.09259V110.946H3.7037Z" fill="black"/>
<path fill-rule="evenodd" clip-rule="evenodd" d="M69.9074 110.682V71.68H71.2963V110.682H69.9074Z" fill="black"/>
</svg>
