<svg width="36" height="36" viewBox="0 0 36 36" fill="none" xmlns="http://www.w3.org/2000/svg">
<path d="M11.0333 5.02703C12.2609 4.09736 13.7595 3.59593 15.2993 3.59963C15.7313 3.59963 16.0751 3.82463 16.2749 3.97943C16.4981 4.15583 16.7069 4.38083 16.8941 4.60583C17.0269 4.76705 17.0994 4.9694 17.0993 5.17823V11.6996H15.1463C14.934 11.0991 14.5163 10.593 13.9669 10.2708C13.4175 9.94849 12.7719 9.83081 12.1442 9.93851C11.5164 10.0462 10.947 10.3724 10.5364 10.8593C10.1259 11.3463 9.90075 11.9627 9.90075 12.5996C9.90075 13.2365 10.1259 13.853 10.5364 14.3399C10.947 14.8269 11.5164 15.153 12.1442 15.2607C12.7719 15.3684 13.4175 15.2508 13.9669 14.9285C14.5163 14.6062 14.934 14.1001 15.1463 13.4996H17.0993V30.4466C17.0994 30.5799 17.0699 30.7115 17.013 30.832C16.956 30.9524 16.873 31.0587 16.7699 31.1432C15.9383 31.8236 14.8259 32.3996 13.4993 32.3996C11.3645 32.3996 9.77513 31.3232 8.74733 30.0362C8.0089 29.1192 7.50313 28.0373 7.27313 26.8826C6.5738 26.6962 5.92538 26.3547 5.37593 25.8836C4.38233 25.0322 3.59933 23.6516 3.59933 21.5996C3.59933 20.597 3.66593 19.6916 3.81533 18.8996H9.44933C10.5941 18.8996 11.5373 19.7546 11.6813 20.8598C11.0827 21.0765 10.5799 21.4976 10.2617 22.049C9.94348 22.6003 9.83029 23.2464 9.94214 23.873C10.054 24.4997 10.3837 25.0667 10.8729 25.474C11.3622 25.8812 11.9797 26.1024 12.6163 26.0986C13.2529 26.0948 13.8676 25.8662 14.352 25.4532C14.8364 25.0401 15.1593 24.4692 15.2636 23.8412C15.368 23.2133 15.2471 22.5686 14.9223 22.0211C14.5975 21.4736 14.0897 21.0585 13.4885 20.849C13.4127 19.8297 12.9542 18.8767 12.205 18.1813C11.4559 17.4859 10.4715 17.0995 9.44933 17.0996H4.39313C4.66853 16.5632 5.03753 16.1096 5.51813 15.7874C5.6397 15.707 5.76728 15.6359 5.89973 15.575C5.38853 14.0774 5.52173 12.3242 6.01493 10.9472C6.32993 10.0616 6.83033 9.22463 7.51793 8.66663C7.97153 8.29763 8.51153 8.05463 9.10193 8.00783C9.36114 6.77843 10.0901 5.76143 11.0351 5.02703H11.0333ZM18.8993 26.0996H20.2493C21.3235 26.0996 22.3536 25.6729 23.1131 24.9134C23.8726 24.1539 24.2993 23.1238 24.2993 22.0496V18.7466C24.8998 18.5343 25.4059 18.1166 25.7282 17.5672C26.0505 17.0178 26.1682 16.3722 26.0604 15.7445C25.9527 15.1167 25.6266 14.5473 25.1396 14.1367C24.6527 13.7262 24.0363 13.501 23.3993 13.501C22.7624 13.501 22.146 13.7262 21.659 14.1367C21.1721 14.5473 20.8459 15.1167 20.7382 15.7445C20.6305 16.3722 20.7482 17.0178 21.0705 17.5672C21.3927 18.1166 21.8988 18.5343 22.4993 18.7466V22.0496C22.4993 23.2916 21.4913 24.2996 20.2493 24.2996H18.8993V5.17823C18.8993 4.9694 18.9718 4.76705 19.1045 4.60583C19.2899 4.38083 19.5005 4.15583 19.7237 3.97943C19.9217 3.82463 20.2655 3.59963 20.6993 3.59963C22.2392 3.59593 23.7378 4.09736 24.9653 5.02703C25.9103 5.76143 26.6393 6.77843 26.8967 8.00783C27.4871 8.05283 28.0271 8.29763 28.4807 8.66663C29.1683 9.22463 29.6687 10.0616 29.9837 10.9472C30.4769 12.3242 30.6101 14.0792 30.0989 15.5732C30.2285 15.6344 30.3563 15.7064 30.4805 15.7892C30.9755 16.1186 31.3517 16.5902 31.6289 17.1464C32.1743 18.2354 32.3993 19.7546 32.3993 21.5996C32.3993 23.6534 31.6163 25.0322 30.6227 25.8836C30.0733 26.3547 29.4249 26.6962 28.7255 26.8826C28.5455 27.887 28.0415 29.0498 27.2513 30.0362C26.2253 31.3232 24.6341 32.3996 22.4993 32.3996C21.1745 32.3996 20.0603 31.8236 19.2305 31.1432C19.1272 31.0589 19.0438 30.9527 18.9865 30.8322C18.9292 30.7117 18.8995 30.58 18.8993 30.4466V26.0996ZM12.5993 11.6996C12.3606 11.6996 12.1317 11.7945 11.9629 11.9632C11.7942 12.132 11.6993 12.3609 11.6993 12.5996C11.6993 12.8383 11.7942 13.0672 11.9629 13.236C12.1317 13.4048 12.3606 13.4996 12.5993 13.4996C12.838 13.4996 13.0669 13.4048 13.2357 13.236C13.4045 13.0672 13.4993 12.8383 13.4993 12.5996C13.4993 12.3609 13.4045 12.132 13.2357 11.9632C13.0669 11.7945 12.838 11.6996 12.5993 11.6996ZM12.5993 22.4996C12.3606 22.4996 12.1317 22.5944 11.9629 22.7632C11.7942 22.932 11.6993 23.1609 11.6993 23.3996C11.6993 23.6383 11.7942 23.8672 11.9629 24.036C12.1317 24.2048 12.3606 24.2996 12.5993 24.2996C12.838 24.2996 13.0669 24.2048 13.2357 24.036C13.4045 23.8672 13.4993 23.6383 13.4993 23.3996C13.4993 23.1609 13.4045 22.932 13.2357 22.7632C13.0669 22.5944 12.838 22.4996 12.5993 22.4996ZM23.3993 17.0996C23.638 17.0996 23.8669 17.0048 24.0357 16.836C24.2045 16.6672 24.2993 16.4383 24.2993 16.1996C24.2993 15.9609 24.2045 15.732 24.0357 15.5632C23.8669 15.3945 23.638 15.2996 23.3993 15.2996C23.1606 15.2996 22.9317 15.3945 22.7629 15.5632C22.5942 15.732 22.4993 15.9609 22.4993 16.1996C22.4993 16.4383 22.5942 16.6672 22.7629 16.836C22.9317 17.0048 23.1606 17.0996 23.3993 17.0996Z" fill="#185CFF"/>
</svg>
