<svg width="109" height="126" viewBox="0 0 109 126" fill="none" xmlns="http://www.w3.org/2000/svg">
<path fill-rule="evenodd" clip-rule="evenodd" d="M45.2033 0C42.6851 0 40.6437 2.04391 40.6437 4.56522C40.6437 7.08652 42.6851 9.13043 45.2033 9.13043C74.9183 9.13043 99.007 33.2487 99.007 63C99.007 92.7513 74.9183 116.87 45.2033 116.87C31.0177 116.87 17.7118 111.355 7.73523 101.661C5.92816 99.9045 3.04149 99.9478 1.28765 101.757C-0.466177 103.566 -0.423022 106.457 1.38404 108.212C13.0456 119.544 28.6223 126 45.2033 126C79.9547 126 108.126 97.7939 108.126 63C108.126 28.2061 79.9547 0 45.2033 0Z" fill="#34B53A"/>
</svg>
