<svg width="24" height="24" viewBox="0 0 24 24" fill="none" xmlns="http://www.w3.org/2000/svg">
<g clip-path="url(#clip0_321_739)">
<path d="M22.8533 1.14991C22.1734 0.471104 21.252 0.0898438 20.2913 0.0898438C19.3305 0.0898438 18.4091 0.471104 17.7293 1.14991L1.46526 17.4139C0.999511 17.877 0.630221 18.4279 0.378757 19.0347C0.127293 19.6415 -0.00135384 20.2921 0.000259122 20.9489V23.0019C0.000259122 23.2671 0.105616 23.5215 0.293152 23.709C0.480689 23.8966 0.735043 24.0019 1.00026 24.0019H3.05326C3.71002 24.0038 4.36063 23.8753 4.96741 23.624C5.5742 23.3727 6.12511 23.0036 6.58826 22.5379L22.8533 6.27291C23.5318 5.5931 23.9128 4.67187 23.9128 3.71141C23.9128 2.75094 23.5318 1.82971 22.8533 1.14991ZM5.17426 21.1239C4.61026 21.6842 3.84822 21.9996 3.05326 22.0019H2.00026V20.9489C1.99925 20.5548 2.07642 20.1644 2.2273 19.8004C2.37818 19.4363 2.59977 19.1058 2.87926 18.8279L15.2223 6.48491L17.5223 8.78491L5.17426 21.1239ZM21.4383 4.85891L18.9323 7.36591L16.6323 5.07091L19.1393 2.56391C19.2903 2.41322 19.4695 2.29374 19.6667 2.21232C19.8639 2.13089 20.0752 2.0891 20.2885 2.08933C20.5019 2.08956 20.7131 2.13181 20.9101 2.21367C21.1071 2.29553 21.2861 2.41539 21.4368 2.56641C21.5875 2.71743 21.7069 2.89665 21.7884 3.09384C21.8698 3.29103 21.9116 3.50233 21.9113 3.71567C21.9111 3.92902 21.8689 4.14023 21.787 4.33724C21.7051 4.53425 21.5853 4.71321 21.4343 4.86391L21.4383 4.85891Z" fill="#374957"/>
</g>
<defs>
<clipPath id="clip0_321_739">
<rect width="24" height="24" fill="white"/>
</clipPath>
</defs>
</svg>
