<svg width="51" height="50" viewBox="0 0 51 50" fill="none" xmlns="http://www.w3.org/2000/svg">
<path d="M25.5 0C11.4469 0 0 11.0783 0 24.6788C0 38.2793 11.4469 49.3576 25.5 49.3576C39.5531 49.3576 51 38.2793 51 24.6788C51 11.0783 39.5531 0 25.5 0ZM25.5 4.93576C36.7968 4.93576 45.9 13.7458 45.9 24.6788C45.9 35.6118 36.7968 44.4218 25.5 44.4218C14.2032 44.4218 5.1 35.6118 5.1 24.6788C5.1 13.7458 14.2032 4.93576 25.5 4.93576ZM22.95 12.3394V22.2109H12.75V27.1467H22.95V37.0182H28.05V27.1467H38.25V22.2109H28.05V12.3394H22.95Z" fill="#5DB075"/>
</svg>
