<svg width="15" height="9" viewBox="0 0 15 9" fill="none" xmlns="http://www.w3.org/2000/svg">
<path d="M14.5791 0.413587C14.3125 0.148687 13.9518 0 13.5759 0C13.2 0 12.8394 0.148687 12.5728 0.413587L7.46443 5.44844L2.42724 0.413587C2.16063 0.148687 1.79999 0 1.42407 0C1.04815 0 0.687506 0.148687 0.420902 0.413587C0.287532 0.545806 0.181674 0.703111 0.109433 0.876428C0.0371927 1.04975 0 1.23564 0 1.4234C0 1.61116 0.0371927 1.79706 0.109433 1.97038C0.181674 2.14369 0.287532 2.301 0.420902 2.43322L6.45414 8.46366C6.58642 8.59697 6.7438 8.70278 6.9172 8.77499C7.0906 8.84719 7.27658 8.88437 7.46443 8.88437C7.65227 8.88437 7.83826 8.84719 8.01165 8.77499C8.18505 8.70278 8.34243 8.59697 8.47471 8.46366L14.5791 2.43322C14.7125 2.301 14.8183 2.14369 14.8906 1.97038C14.9628 1.79706 15 1.61116 15 1.4234C15 1.23564 14.9628 1.04975 14.8906 0.876428C14.8183 0.703111 14.7125 0.545806 14.5791 0.413587Z" fill="white"/>
</svg>
