<svg width="32" height="113" viewBox="0 0 32 113" fill="none" xmlns="http://www.w3.org/2000/svg">
<rect width="32" height="113" rx="8" fill="white"/>
<path fill-rule="evenodd" clip-rule="evenodd" d="M20.6665 19.3333H16.6665V15.3333C16.6665 14.9647 16.3678 14.6667 15.9998 14.6667C15.6318 14.6667 15.3332 14.9647 15.3332 15.3333V19.3333H11.3332C10.9652 19.3333 10.6665 19.6313 10.6665 20C10.6665 20.3687 10.9652 20.6667 11.3332 20.6667H15.3332V24.6667C15.3332 25.0353 15.6318 25.3333 15.9998 25.3333C16.3678 25.3333 16.6665 25.0353 16.6665 24.6667V20.6667H20.6665C21.0345 20.6667 21.3332 20.3687 21.3332 20C21.3332 19.6313 21.0345 19.3333 20.6665 19.3333Z" fill="#231F20"/>
<mask id="mask0_170_241" style="mask-type:alpha" maskUnits="userSpaceOnUse" x="10" y="14" width="12" height="12">
<path fill-rule="evenodd" clip-rule="evenodd" d="M20.6665 19.3333H16.6665V15.3333C16.6665 14.9647 16.3678 14.6667 15.9998 14.6667C15.6318 14.6667 15.3332 14.9647 15.3332 15.3333V19.3333H11.3332C10.9652 19.3333 10.6665 19.6313 10.6665 20C10.6665 20.3687 10.9652 20.6667 11.3332 20.6667H15.3332V24.6667C15.3332 25.0353 15.6318 25.3333 15.9998 25.3333C16.3678 25.3333 16.6665 25.0353 16.6665 24.6667V20.6667H20.6665C21.0345 20.6667 21.3332 20.3687 21.3332 20C21.3332 19.6313 21.0345 19.3333 20.6665 19.3333Z" fill="white"/>
</mask>
<g mask="url(#mask0_170_241)">
<rect x="8" y="12" width="16" height="16" fill="#161E15"/>
</g>
<path fill-rule="evenodd" clip-rule="evenodd" d="M11.4881 43.0934C11.7241 43.3761 12.1441 43.4147 12.4268 43.1787L15.3334 40.7567V48.6667C15.3334 49.0347 15.6321 49.3334 16.0001 49.3334C16.3681 49.3334 16.6668 49.0347 16.6668 48.6667V40.7567L19.5734 43.1787C19.8568 43.4147 20.2768 43.3761 20.5121 43.0934C20.7481 42.8107 20.7101 42.3901 20.4268 42.1547L16.4268 38.8214C16.3954 38.7947 16.3581 38.7821 16.3234 38.7621C16.2961 38.7461 16.2721 38.7274 16.2421 38.7154C16.1641 38.6847 16.0828 38.6667 16.0001 38.6667C15.9174 38.6667 15.8361 38.6847 15.7581 38.7154C15.7281 38.7274 15.7041 38.7461 15.6768 38.7621C15.6421 38.7821 15.6048 38.7947 15.5734 38.8214L11.5734 42.1547C11.2908 42.3901 11.2521 42.8107 11.4881 43.0934Z" fill="#231F20"/>
<mask id="mask1_170_241" style="mask-type:alpha" maskUnits="userSpaceOnUse" x="11" y="38" width="10" height="12">
<path fill-rule="evenodd" clip-rule="evenodd" d="M11.4881 43.0934C11.7241 43.3761 12.1441 43.4147 12.4268 43.1787L15.3334 40.7567V48.6667C15.3334 49.0347 15.6321 49.3334 16.0001 49.3334C16.3681 49.3334 16.6668 49.0347 16.6668 48.6667V40.7567L19.5734 43.1787C19.8568 43.4147 20.2768 43.3761 20.5121 43.0934C20.7481 42.8107 20.7101 42.3901 20.4268 42.1547L16.4268 38.8214C16.3954 38.7947 16.3581 38.7821 16.3234 38.7621C16.2961 38.7461 16.2721 38.7274 16.2421 38.7154C16.1641 38.6847 16.0828 38.6667 16.0001 38.6667C15.9174 38.6667 15.8361 38.6847 15.7581 38.7154C15.7281 38.7274 15.7041 38.7461 15.6768 38.7621C15.6421 38.7821 15.6048 38.7947 15.5734 38.8214L11.5734 42.1547C11.2908 42.3901 11.2521 42.8107 11.4881 43.0934Z" fill="white"/>
</mask>
<g mask="url(#mask1_170_241)">
<rect x="8" y="36" width="16" height="16" fill="#0D1C2E"/>
</g>
<path fill-rule="evenodd" clip-rule="evenodd" d="M17.5528 73.3337C17.5082 73.3337 17.4622 73.3317 17.4162 73.327C16.8295 73.269 16.3695 72.855 16.2428 72.2717L14.4542 64.0103L12.6122 68.265C12.5062 68.509 12.2655 68.667 12.0002 68.667H10.0002C9.6315 68.667 9.3335 68.3683 9.3335 68.0003C9.3335 67.6317 9.6315 67.3337 10.0002 67.3337H11.5628L13.2335 63.4743C13.4702 62.9303 13.9915 62.6137 14.5842 62.673C15.1708 62.731 15.6308 63.145 15.7575 63.7283L17.5462 71.9897L19.3882 67.735C19.4942 67.491 19.7342 67.3337 20.0002 67.3337H22.0002C22.3688 67.3337 22.6668 67.6317 22.6668 68.0003C22.6668 68.3683 22.3688 68.667 22.0002 68.667H20.4375L18.7668 72.5257C18.5488 73.0277 18.0815 73.3337 17.5528 73.3337Z" fill="#231F20"/>
<mask id="mask2_170_241" style="mask-type:alpha" maskUnits="userSpaceOnUse" x="9" y="62" width="14" height="12">
<path fill-rule="evenodd" clip-rule="evenodd" d="M17.5528 73.3337C17.5082 73.3337 17.4622 73.3317 17.4162 73.327C16.8295 73.269 16.3695 72.855 16.2428 72.2717L14.4542 64.0103L12.6122 68.265C12.5062 68.509 12.2655 68.667 12.0002 68.667H10.0002C9.6315 68.667 9.3335 68.3683 9.3335 68.0003C9.3335 67.6317 9.6315 67.3337 10.0002 67.3337H11.5628L13.2335 63.4743C13.4702 62.9303 13.9915 62.6137 14.5842 62.673C15.1708 62.731 15.6308 63.145 15.7575 63.7283L17.5462 71.9897L19.3882 67.735C19.4942 67.491 19.7342 67.3337 20.0002 67.3337H22.0002C22.3688 67.3337 22.6668 67.6317 22.6668 68.0003C22.6668 68.3683 22.3688 68.667 22.0002 68.667H20.4375L18.7668 72.5257C18.5488 73.0277 18.0815 73.3337 17.5528 73.3337Z" fill="white"/>
</mask>
<g mask="url(#mask2_170_241)">
<rect x="8" y="60" width="16" height="16" fill="#0D1C2E"/>
</g>
<path fill-rule="evenodd" clip-rule="evenodd" d="M15.9999 86.6668C18.4319 86.6668 20.7339 87.5968 22.4832 89.2861C22.7479 89.5415 22.7552 89.9641 22.4999 90.2288C22.3692 90.3641 22.1946 90.4321 22.0206 90.4321C21.8539 90.4321 21.6866 90.3701 21.5572 90.2448C20.0572 88.7975 18.0839 88.0001 15.9999 88.0001C13.9159 88.0001 11.9426 88.7975 10.4426 90.2448C10.1792 90.5015 9.75658 90.4941 9.49991 90.2288C9.24525 89.9641 9.25191 89.5415 9.51725 89.2861C11.2666 87.5968 13.5686 86.6668 15.9999 86.6668ZM16.0002 90C14.3815 90 12.8082 90.6673 11.6835 91.832C11.4288 92.0973 11.4355 92.5193 11.7008 92.7747C11.9648 93.0307 12.3882 93.0233 12.6435 92.7587C13.5175 91.8527 14.7408 91.3333 16.0002 91.3333C17.2595 91.3333 18.4828 91.8527 19.3568 92.7587C19.4875 92.894 19.6622 92.962 19.8368 92.962C20.0035 92.962 20.1708 92.9 20.2995 92.7747C20.5648 92.5193 20.5715 92.0973 20.3168 91.832C19.1922 90.6673 17.6188 90 16.0002 90ZM13.6848 94.2687C14.3095 93.666 15.1315 93.3333 16.0002 93.3333C16.8688 93.3333 17.6908 93.666 18.3155 94.2687C18.5802 94.5247 18.5875 94.9467 18.3322 95.2113C18.2015 95.3473 18.0268 95.4153 17.8522 95.4153C17.6855 95.4153 17.5182 95.3527 17.3895 95.228C16.6395 94.504 15.3608 94.504 14.6108 95.228C14.3475 95.484 13.9248 95.4767 13.6682 95.2113C13.4128 94.9467 13.4202 94.5247 13.6848 94.2687ZM15.3335 96.6667C15.3335 96.2987 15.6315 96 16.0002 96C16.3688 96 16.6668 96.2987 16.6668 96.6667C16.6668 97.0347 16.3688 97.3333 16.0002 97.3333C15.6315 97.3333 15.3335 97.0347 15.3335 96.6667Z" fill="#231F20"/>
<mask id="mask3_170_241" style="mask-type:alpha" maskUnits="userSpaceOnUse" x="9" y="86" width="14" height="12">
<path fill-rule="evenodd" clip-rule="evenodd" d="M15.9999 86.6668C18.4319 86.6668 20.7339 87.5968 22.4832 89.2861C22.7479 89.5415 22.7552 89.9641 22.4999 90.2288C22.3692 90.3641 22.1946 90.4321 22.0206 90.4321C21.8539 90.4321 21.6866 90.3701 21.5572 90.2448C20.0572 88.7975 18.0839 88.0001 15.9999 88.0001C13.9159 88.0001 11.9426 88.7975 10.4426 90.2448C10.1792 90.5015 9.75658 90.4941 9.49991 90.2288C9.24525 89.9641 9.25191 89.5415 9.51725 89.2861C11.2666 87.5968 13.5686 86.6668 15.9999 86.6668ZM16.0002 90C14.3815 90 12.8082 90.6673 11.6835 91.832C11.4288 92.0973 11.4355 92.5193 11.7008 92.7747C11.9648 93.0307 12.3882 93.0233 12.6435 92.7587C13.5175 91.8527 14.7408 91.3333 16.0002 91.3333C17.2595 91.3333 18.4828 91.8527 19.3568 92.7587C19.4875 92.894 19.6622 92.962 19.8368 92.962C20.0035 92.962 20.1708 92.9 20.2995 92.7747C20.5648 92.5193 20.5715 92.0973 20.3168 91.832C19.1922 90.6673 17.6188 90 16.0002 90ZM13.6848 94.2687C14.3095 93.666 15.1315 93.3333 16.0002 93.3333C16.8688 93.3333 17.6908 93.666 18.3155 94.2687C18.5802 94.5247 18.5875 94.9467 18.3322 95.2113C18.2015 95.3473 18.0268 95.4153 17.8522 95.4153C17.6855 95.4153 17.5182 95.3527 17.3895 95.228C16.6395 94.504 15.3608 94.504 14.6108 95.228C14.3475 95.484 13.9248 95.4767 13.6682 95.2113C13.4128 94.9467 13.4202 94.5247 13.6848 94.2687ZM15.3335 96.6667C15.3335 96.2987 15.6315 96 16.0002 96C16.3688 96 16.6668 96.2987 16.6668 96.6667C16.6668 97.0347 16.3688 97.3333 16.0002 97.3333C15.6315 97.3333 15.3335 97.0347 15.3335 96.6667Z" fill="white"/>
</mask>
<g mask="url(#mask3_170_241)">
<rect x="8" y="84" width="16" height="16" fill="#0D1C2E"/>
</g>
</svg>
