<svg width="21" height="21" viewBox="0 0 21 21" fill="none" xmlns="http://www.w3.org/2000/svg">
<path d="M10.5 8.57532C10.8461 8.57532 11.1845 8.47269 11.4722 8.28039C11.76 8.0881 11.9843 7.81479 12.1168 7.49502C12.2492 7.17525 12.2839 6.82338 12.2164 6.48391C12.1489 6.14445 11.9822 5.83263 11.7374 5.58788C11.4927 5.34314 11.1809 5.17647 10.8414 5.10895C10.5019 5.04142 10.1501 5.07608 9.8303 5.20853C9.51053 5.34099 9.23722 5.56529 9.04493 5.85307C8.85264 6.14086 8.75 6.4792 8.75 6.82532C8.75 7.28945 8.93437 7.73457 9.26256 8.06276C9.59075 8.39095 10.0359 8.57532 10.5 8.57532ZM9.87875 14.6216C9.96009 14.7036 10.0569 14.7687 10.1635 14.8131C10.2701 14.8575 10.3845 14.8804 10.5 14.8804C10.6155 14.8804 10.7299 14.8575 10.8365 14.8131C10.9431 14.7687 11.0399 14.7036 11.1213 14.6216L14.7 11.0341C15.5312 10.2033 16.0974 9.14467 16.3269 7.9921C16.5564 6.83952 16.4389 5.64478 15.9893 4.55897C15.5397 3.47317 14.7782 2.54509 13.8011 1.89212C12.824 1.23915 11.6752 0.890625 10.5 0.890625C9.3248 0.890625 8.176 1.23915 7.1989 1.89212C6.22179 2.54509 5.46029 3.47317 5.0107 4.55897C4.56112 5.64478 4.44364 6.83952 4.67314 7.9921C4.90263 9.14467 5.46879 10.2033 6.3 11.0341L9.87875 14.6216ZM6.32625 6.42282C6.38603 5.79896 6.58439 5.19633 6.90683 4.65892C7.22928 4.12152 7.66767 3.6629 8.19 3.31657C8.87618 2.86603 9.67913 2.62598 10.5 2.62598C11.3209 2.62598 12.1238 2.86603 12.81 3.31657C13.3288 3.66172 13.7648 4.11755 14.0864 4.65128C14.408 5.18502 14.6074 5.7834 14.6701 6.40338C14.7329 7.02337 14.6575 7.64956 14.4493 8.23692C14.2411 8.82428 13.9054 9.35821 13.4663 9.80032L10.5 12.7666L7.53375 9.80032C7.09408 9.3625 6.75756 8.83216 6.54868 8.2479C6.3398 7.66364 6.26381 7.04015 6.32625 6.42282ZM16.625 16.6253H4.375C4.14294 16.6253 3.92038 16.7175 3.75628 16.8816C3.59219 17.0457 3.5 17.2683 3.5 17.5003C3.5 17.7324 3.59219 17.9549 3.75628 18.119C3.92038 18.2831 4.14294 18.3753 4.375 18.3753H16.625C16.8571 18.3753 17.0796 18.2831 17.2437 18.119C17.4078 17.9549 17.5 17.7324 17.5 17.5003C17.5 17.2683 17.4078 17.0457 17.2437 16.8816C17.0796 16.7175 16.8571 16.6253 16.625 16.6253Z" fill="#C4C4C4"/>
</svg>
