<svg width="98" height="30" viewBox="0 0 98 30" fill="none" xmlns="http://www.w3.org/2000/svg">
<g clip-path="url(#clip0_1211_1706)">
<path d="M96.5116 6.45157H69.7166C68.8946 6.45157 68.2279 7.11819 68.2279 7.94019V22.8263C68.2279 23.6483 68.8946 24.315 69.7166 24.315H77.1699C78.3417 24.315 79.4042 23.6279 79.8847 22.5593L81.1752 19.6919C81.5422 18.8759 82.293 18.3605 83.1141 18.3605C83.9352 18.3605 84.686 18.8759 85.053 19.6919L86.3435 22.5593C86.824 23.6279 87.887 24.315 89.0583 24.315H96.5116C97.3336 24.315 98.0002 23.6483 98.0002 22.8263V7.94019C98.0002 7.11819 97.3336 6.45157 96.5116 6.45157ZM75.671 17.6162C74.0266 17.6162 72.6938 16.2834 72.6938 14.639C72.6938 12.9945 74.0266 11.6617 75.671 11.6617C77.3155 11.6617 78.6482 12.9945 78.6482 14.639C78.6482 16.2834 77.3155 17.6162 75.671 17.6162ZM90.5572 17.6162C88.9127 17.6162 87.5799 16.2834 87.5799 14.639C87.5799 12.9945 88.9127 11.6617 90.5572 11.6617C92.2016 11.6617 93.5344 12.9945 93.5344 14.639C93.5344 16.2834 92.2016 17.6162 90.5572 17.6162Z" fill="#B6E13D"/>
</g>
<path d="M14.1163 11.5955C14.4473 11.5955 14.7751 11.5303 15.0809 11.4036C15.3867 11.2769 15.6646 11.0913 15.8987 10.8572C16.1328 10.6231 16.3185 10.3452 16.4451 10.0394C16.5718 9.73356 16.637 9.40577 16.637 9.07474C16.637 8.40619 16.3714 7.76503 15.8987 7.29229C15.426 6.81956 14.7848 6.55398 14.1163 6.55398C13.4477 6.55398 12.8065 6.81956 12.3338 7.29229C11.8611 7.76503 11.5955 8.40619 11.5955 9.07474C11.5955 9.40577 11.6607 9.73356 11.7874 10.0394C11.9141 10.3452 12.0997 10.6231 12.3338 10.8572C12.8065 11.3299 13.4477 11.5955 14.1163 11.5955ZM14.1163 2.01661C18.0083 2.01661 21.1744 5.1726 21.1744 9.07474C21.1744 14.3683 14.1163 22.1827 14.1163 22.1827C14.1163 22.1827 7.05813 14.3683 7.05813 9.07474C7.05813 7.20281 7.80175 5.40754 9.12541 4.08389C10.4491 2.76023 12.2443 2.01661 14.1163 2.01661ZM5.04152 9.07474C5.04152 13.6121 10.1637 19.8233 11.0913 20.9828L10.083 22.1827C10.083 22.1827 3.02491 14.3683 3.02491 9.07474C3.02491 5.87841 5.15244 3.17616 8.06644 2.30902C6.21115 3.97272 5.04152 6.38257 5.04152 9.07474Z" fill="white"/>
<defs>
<clipPath id="clip0_1211_1706">
<rect width="29.5271" height="23.6217" fill="white" transform="translate(68.2279 3.47392) scale(1.0083)"/>
</clipPath>
</defs>
</svg>
