<svg width="40" height="40" viewBox="0 0 40 40" fill="none" xmlns="http://www.w3.org/2000/svg">
<path fill-rule="evenodd" clip-rule="evenodd" d="M33.6 20.322C33.6 19.3175 33.5099 18.3516 33.3424 17.4243H20V22.9042H27.6243C27.2958 24.6751 26.2977 26.1755 24.7974 27.18V30.7346H29.3758C32.0546 28.2683 33.6 24.6364 33.6 20.322Z" fill="#4285F4"/>
<path fill-rule="evenodd" clip-rule="evenodd" d="M20.0001 34.1668C23.8251 34.1668 27.0319 32.8982 29.3759 30.7346L24.7974 27.18C23.5289 28.03 21.9061 28.5323 20.0001 28.5323C16.3103 28.5323 13.1872 26.0403 12.0732 22.6918H7.34021V26.3622C9.67127 30.9922 14.4622 34.1668 20.0001 34.1668Z" fill="#34A853"/>
<path fill-rule="evenodd" clip-rule="evenodd" d="M12.0732 22.6917C11.7898 21.8417 11.6288 20.9338 11.6288 20.0001C11.6288 19.0664 11.7898 18.1584 12.0732 17.3084V13.6379H7.34019C6.38072 15.5504 5.83337 17.7141 5.83337 20.0001C5.83337 22.2861 6.38072 24.4497 7.34019 26.3622L12.0732 22.6917Z" fill="#FBBC05"/>
<path fill-rule="evenodd" clip-rule="evenodd" d="M20.0001 11.4679C22.08 11.4679 23.9474 12.1826 25.4156 13.5864L29.4789 9.52315C27.0255 7.23716 23.8186 5.83337 20.0001 5.83337C14.4622 5.83337 9.67127 9.008 7.34021 13.6379L12.0732 17.3084C13.1872 13.9599 16.3103 11.4679 20.0001 11.4679Z" fill="#EA4335"/>
</svg>
