<svg width="10" height="12" viewBox="0 0 10 12" fill="none" xmlns="http://www.w3.org/2000/svg">
<path d="M1.875 3.125C1.875 1.39911 3.27411 0 5 0C6.72589 0 8.125 1.39911 8.125 3.125C8.125 4.85089 6.72589 6.25 5 6.25C3.27411 6.25 1.875 4.85089 1.875 3.125ZM5 5C6.03553 5 6.875 4.16053 6.875 3.125C6.875 2.08947 6.03553 1.25 5 1.25C3.96447 1.25 3.125 2.08947 3.125 3.125C3.125 4.16053 3.96447 5 5 5Z" fill="#828282"/>
<path d="M1.46447 8.33947C0.526784 9.27715 0 10.5489 0 11.875H1.25C1.25 10.8804 1.64509 9.92661 2.34835 9.22335C3.05161 8.52009 4.00544 8.125 5 8.125C5.99456 8.125 6.94839 8.52009 7.65165 9.22335C8.35491 9.92661 8.75 10.8804 8.75 11.875H10C10 10.5489 9.47322 9.27715 8.53553 8.33947C7.59785 7.40178 6.32608 6.875 5 6.875C3.67392 6.875 2.40215 7.40178 1.46447 8.33947Z" fill="#828282"/>
</svg>
