<svg width="745" height="12" viewBox="0 0 745 12" fill="none" xmlns="http://www.w3.org/2000/svg">
<circle cx="6" cy="6" r="6" fill="#007AFF"/>
<line x1="20" y1="5.5" x2="60" y2="5.5" stroke="#B9B9C3"/>
<mask id="path-3-inside-1_206_713" fill="white">
<path d="M80 6C80 9.31371 77.3137 12 74 12C70.6863 12 68 9.31371 68 6C68 2.68629 70.6863 0 74 0C77.3137 0 80 2.68629 80 6Z"/>
</mask>
<path d="M80 6C80 9.31371 77.3137 12 74 12C70.6863 12 68 9.31371 68 6C68 2.68629 70.6863 0 74 0C77.3137 0 80 2.68629 80 6Z" fill="white"/>
<path d="M79 6C79 8.76142 76.7614 11 74 11V13C77.866 13 81 9.86599 81 6H79ZM74 11C71.2386 11 69 8.76142 69 6H67C67 9.86599 70.134 13 74 13V11ZM69 6C69 3.23858 71.2386 1 74 1V-1C70.134 -1 67 2.13401 67 6H69ZM74 1C76.7614 1 79 3.23858 79 6H81C81 2.13401 77.866 -1 74 -1V1Z" fill="#B9B9C3" mask="url(#path-3-inside-1_206_713)"/>
<path d="M88 6H128" stroke="#B9B9C4"/>
<circle cx="142" cy="6" r="5.5" fill="white" stroke="#B9B9C4"/>
</svg>
