<svg width="21" height="18" viewBox="0 0 21 18" fill="none" xmlns="http://www.w3.org/2000/svg">
<path d="M15.1103 0H5.03677C2.01471 0 0 1.58823 0 5.29411V12.7059C0 16.4117 2.01471 18 5.03677 18H15.1103C18.1324 18 20.1471 16.4117 20.1471 12.7059V5.29411C20.1471 1.58823 18.1324 0 15.1103 0ZM15.5838 6.44823L12.4308 9.09529C11.7659 9.65646 10.9197 9.93176 10.0735 9.93176C9.22737 9.93176 8.37112 9.65646 7.71634 9.09529L4.56332 6.44823C4.24096 6.17294 4.1906 5.6647 4.44243 5.32588C4.70435 4.98705 5.1778 4.92353 5.50016 5.19882L8.65318 7.84588C9.41877 8.49176 10.7183 8.49176 11.4838 7.84588L14.6369 5.19882C14.9592 4.92353 15.4427 4.97647 15.6946 5.32588C15.9565 5.6647 15.9061 6.17294 15.5838 6.44823Z" fill="#B0B0B0"/>
</svg>
