<svg width="631" height="679" viewBox="0 0 631 679" fill="none" xmlns="http://www.w3.org/2000/svg">
<path d="M0.917923 16L76.9179 46V84.5L68.4179 116L49.4179 595.5H107.418C110.418 596.5 178.418 17.2 186.418 16C194.418 14.8 230.585 12.1667 236.418 9.5L204.418 231L208.918 232.5L210.918 234.5L214.418 240.5L236.418 300.5L238.918 305.5L241.918 309.5L247.918 319L250.918 326L252.418 333.5L253.918 342L255.418 353L256.418 359L258.918 366.5L261.418 371.5L262.918 376V381V386.5L264.418 391L241.918 406.5L236.418 587H297.918L292.918 432.5L297.918 442L334.418 2.5H412.918V423.5L420.418 436.5L429.418 447L439.918 458L447.918 462.5L455.918 463.5L469.918 466.5L534.918 16L601.418 16L597.918 462.5L520.918 496V512.5V532L526.418 541L534.918 565L537.418 577L538.918 587V595.5L539.918 599.5L562.418 668.5L572.418 666.5H579.418L584.918 668.5L597.918 676.5H601.418L629.418 666.5" stroke="#5932EA" stroke-width="5"/>
</svg>
