<svg width="15" height="15" viewBox="0 0 15 15" fill="none" xmlns="http://www.w3.org/2000/svg">
<path d="M7.03125 12.2727C7.17031 12.2727 7.30626 12.2327 7.42189 12.1578C7.53751 12.0829 7.62764 11.9764 7.68085 11.8518C7.73407 11.7272 7.74799 11.5902 7.72086 11.4579C7.69373 11.3256 7.62677 11.2041 7.52843 11.1088C7.4301 11.0134 7.30482 10.9485 7.16842 10.9222C7.03203 10.8959 6.89065 10.9094 6.76218 10.961C6.6337 11.0126 6.52388 11.1 6.44662 11.2121C6.36936 11.3242 6.32812 11.4561 6.32812 11.5909C6.32812 11.7717 6.4022 11.9452 6.53407 12.073C6.66593 12.2009 6.84477 12.2727 7.03125 12.2727ZM10.5469 12.2727C10.6859 12.2727 10.8219 12.2327 10.9375 12.1578C11.0531 12.0829 11.1433 11.9764 11.1965 11.8518C11.2497 11.7272 11.2636 11.5902 11.2365 11.4579C11.2094 11.3256 11.1424 11.2041 11.0441 11.1088C10.9457 11.0134 10.8204 10.9485 10.684 10.9222C10.5477 10.8959 10.4063 10.9094 10.2778 10.961C10.1493 11.0126 10.0395 11.1 9.96225 11.2121C9.88499 11.3242 9.84375 11.4561 9.84375 11.5909C9.84375 11.7717 9.91783 11.9452 10.0497 12.073C10.1816 12.2009 10.3604 12.2727 10.5469 12.2727ZM10.5469 9.54545C10.6859 9.54545 10.8219 9.50547 10.9375 9.43055C11.0531 9.35563 11.1433 9.24914 11.1965 9.12456C11.2497 8.99997 11.2636 8.86288 11.2365 8.73062C11.2094 8.59836 11.1424 8.47687 11.0441 8.38152C10.9457 8.28616 10.8204 8.22123 10.684 8.19492C10.5477 8.16861 10.4063 8.18211 10.2778 8.23372C10.1493 8.28532 10.0395 8.37271 9.96225 8.48484C9.88499 8.59696 9.84375 8.72879 9.84375 8.86364C9.84375 9.04447 9.91783 9.21789 10.0497 9.34575C10.1816 9.47362 10.3604 9.54545 10.5469 9.54545ZM7.03125 9.54545C7.17031 9.54545 7.30626 9.50547 7.42189 9.43055C7.53751 9.35563 7.62764 9.24914 7.68085 9.12456C7.73407 8.99997 7.74799 8.86288 7.72086 8.73062C7.69373 8.59836 7.62677 8.47687 7.52843 8.38152C7.4301 8.28616 7.30482 8.22123 7.16842 8.19492C7.03203 8.16861 6.89065 8.18211 6.76218 8.23372C6.6337 8.28532 6.52388 8.37271 6.44662 8.48484C6.36936 8.59696 6.32812 8.72879 6.32812 8.86364C6.32812 9.04447 6.4022 9.21789 6.53407 9.34575C6.66593 9.47362 6.84477 9.54545 7.03125 9.54545ZM11.9531 1.36364H11.25V0.681818C11.25 0.500989 11.1759 0.327566 11.0441 0.1997C10.9122 0.0718342 10.7334 0 10.5469 0C10.3604 0 10.1816 0.0718342 10.0497 0.1997C9.91783 0.327566 9.84375 0.500989 9.84375 0.681818V1.36364H4.21875V0.681818C4.21875 0.500989 4.14467 0.327566 4.01281 0.1997C3.88095 0.0718342 3.70211 0 3.51562 0C3.32914 0 3.1503 0.0718342 3.01844 0.1997C2.88658 0.327566 2.8125 0.500989 2.8125 0.681818V1.36364H2.10938C1.54993 1.36364 1.01341 1.57914 0.617822 1.96274C0.222237 2.34633 0 2.8666 0 3.40909V12.9545C0 13.497 0.222237 14.0173 0.617822 14.4009C1.01341 14.7845 1.54993 15 2.10938 15H11.9531C12.5126 15 13.0491 14.7845 13.4447 14.4009C13.8403 14.0173 14.0625 13.497 14.0625 12.9545V3.40909C14.0625 2.8666 13.8403 2.34633 13.4447 1.96274C13.0491 1.57914 12.5126 1.36364 11.9531 1.36364ZM12.6562 12.9545C12.6562 13.1354 12.5822 13.3088 12.4503 13.4367C12.3184 13.5645 12.1396 13.6364 11.9531 13.6364H2.10938C1.92289 13.6364 1.74405 13.5645 1.61219 13.4367C1.48033 13.3088 1.40625 13.1354 1.40625 12.9545V6.81818H12.6562V12.9545ZM12.6562 5.45455H1.40625V3.40909C1.40625 3.22826 1.48033 3.05484 1.61219 2.92697C1.74405 2.79911 1.92289 2.72727 2.10938 2.72727H2.8125V3.40909C2.8125 3.58992 2.88658 3.76334 3.01844 3.89121C3.1503 4.01907 3.32914 4.09091 3.51562 4.09091C3.70211 4.09091 3.88095 4.01907 4.01281 3.89121C4.14467 3.76334 4.21875 3.58992 4.21875 3.40909V2.72727H9.84375V3.40909C9.84375 3.58992 9.91783 3.76334 10.0497 3.89121C10.1816 4.01907 10.3604 4.09091 10.5469 4.09091C10.7334 4.09091 10.9122 4.01907 11.0441 3.89121C11.1759 3.76334 11.25 3.58992 11.25 3.40909V2.72727H11.9531C12.1396 2.72727 12.3184 2.79911 12.4503 2.92697C12.5822 3.05484 12.6562 3.22826 12.6562 3.40909V5.45455ZM3.51562 9.54545C3.65469 9.54545 3.79063 9.50547 3.90626 9.43055C4.02189 9.35563 4.11201 9.24914 4.16523 9.12456C4.21845 8.99997 4.23237 8.86288 4.20524 8.73062C4.17811 8.59836 4.11114 8.47687 4.01281 8.38152C3.91448 8.28616 3.78919 8.22123 3.6528 8.19492C3.5164 8.16861 3.37503 8.18211 3.24655 8.23372C3.11807 8.28532 3.00826 8.37271 2.931 8.48484C2.85374 8.59696 2.8125 8.72879 2.8125 8.86364C2.8125 9.04447 2.88658 9.21789 3.01844 9.34575C3.1503 9.47362 3.32914 9.54545 3.51562 9.54545ZM3.51562 12.2727C3.65469 12.2727 3.79063 12.2327 3.90626 12.1578C4.02189 12.0829 4.11201 11.9764 4.16523 11.8518C4.21845 11.7272 4.23237 11.5902 4.20524 11.4579C4.17811 11.3256 4.11114 11.2041 4.01281 11.1088C3.91448 11.0134 3.78919 10.9485 3.6528 10.9222C3.5164 10.8959 3.37503 10.9094 3.24655 10.961C3.11807 11.0126 3.00826 11.1 2.931 11.2121C2.85374 11.3242 2.8125 11.4561 2.8125 11.5909C2.8125 11.7717 2.88658 11.9452 3.01844 12.073C3.1503 12.2009 3.32914 12.2727 3.51562 12.2727Z" fill="#C4C4C4"/>
</svg>
