<svg width="14" height="16" viewBox="0 0 14 16" fill="none" xmlns="http://www.w3.org/2000/svg">
<path d="M6.86827 7.59975C7.1904 7.59975 7.50937 7.54802 7.80698 7.44751C8.10458 7.34701 8.375 7.19969 8.60277 7.01398C8.83055 6.82827 9.01123 6.6078 9.1345 6.36516C9.25778 6.12251 9.32123 5.86245 9.32123 5.59982C9.32123 5.0694 9.06279 4.56071 8.60277 4.18565C8.14275 3.81059 7.51884 3.59988 6.86827 3.59988C6.21771 3.59988 5.59379 3.81059 5.13377 4.18565C4.67375 4.56071 4.41532 5.0694 4.41532 5.59982C4.41532 5.86245 4.47876 6.12251 4.60204 6.36516C4.72531 6.6078 4.90599 6.82827 5.13377 7.01398C5.59379 7.38904 6.21771 7.59975 6.86827 7.59975ZM6.86827 0C10.6556 0 13.7365 2.50392 13.7365 5.59982C13.7365 9.79968 6.86827 15.9995 6.86827 15.9995C6.86827 15.9995 0 9.79968 0 5.59982C0 4.11465 0.72362 2.69032 2.01167 1.64015C3.29972 0.589979 5.04669 0 6.86827 0Z" fill="#B6E13D"/>
</svg>
