<svg width="15" height="22" viewBox="0 0 15 22" fill="none" xmlns="http://www.w3.org/2000/svg">
<path d="M7.3675 0C4.6256 0 2.3965 2.34299 2.3965 5.22498C2.3965 8.05196 4.50002 10.34 7.24191 10.439C7.32564 10.428 7.40936 10.428 7.47215 10.439C7.49308 10.439 7.50355 10.439 7.52448 10.439C7.53494 10.439 7.53494 10.439 7.54541 10.439C10.2245 10.34 12.328 8.05196 12.3385 5.22498C12.3385 2.34299 10.1094 0 7.3675 0Z" fill="#1A3447"/>
<path d="M12.6839 13.365C9.76408 11.319 5.00239 11.319 2.06166 13.365C0.732568 14.3 0 15.565 0 16.918C0 18.271 0.732568 19.525 2.05119 20.4489C3.51633 21.4829 5.44193 21.9999 7.36754 21.9999C9.29315 21.9999 11.2188 21.4829 12.6839 20.4489C14.0025 19.514 14.7351 18.26 14.7351 16.896C14.7246 15.543 14.0025 14.289 12.6839 13.365Z" fill="#1A3447"/>
</svg>
