<svg width="15" height="10" viewBox="0 0 15 10" fill="none" xmlns="http://www.w3.org/2000/svg">
<path fill-rule="evenodd" clip-rule="evenodd" d="M7.77293 0.190723C7.86001 0.130266 7.96345 0.0823005 8.07734 0.0495731C8.19122 0.0168456 8.31331 0 8.43661 0C8.55991 0 8.682 0.0168456 8.79589 0.0495731C8.90977 0.0823005 9.01321 0.130266 9.10029 0.190723L14.7247 4.08585C14.812 4.14616 14.8813 4.21779 14.9285 4.29666C14.9758 4.37553 15.0001 4.46009 15.0001 4.54548C15.0001 4.63087 14.9758 4.71542 14.9285 4.79429C14.8813 4.87316 14.812 4.9448 14.7247 5.0051L9.10029 8.90023C8.92427 9.02213 8.68554 9.09061 8.43661 9.09061C8.18768 9.09061 7.94895 9.02213 7.77293 8.90023C7.59691 8.77833 7.49803 8.613 7.49803 8.44061C7.49803 8.26821 7.59691 8.10288 7.77293 7.98098L12.7355 4.54548L7.77293 1.10997C7.68563 1.04967 7.61637 0.978031 7.56912 0.899161C7.52186 0.820291 7.49753 0.735739 7.49753 0.650348C7.49753 0.564958 7.52186 0.480406 7.56912 0.401536C7.61637 0.322666 7.68563 0.251027 7.77293 0.190723Z" fill="#F3FEFA"/>
<path fill-rule="evenodd" clip-rule="evenodd" d="M0 4.54561C0 4.37344 0.0987618 4.20832 0.274559 4.08657C0.450356 3.96483 0.688787 3.89643 0.937401 3.89643H13.1236C13.3722 3.89643 13.6107 3.96483 13.7865 4.08657C13.9623 4.20832 14.061 4.37344 14.061 4.54561C14.061 4.71779 13.9623 4.88291 13.7865 5.00466C13.6107 5.1264 13.3722 5.1948 13.1236 5.1948H0.937401C0.688787 5.1948 0.450356 5.1264 0.274559 5.00466C0.0987618 4.88291 0 4.71779 0 4.54561Z" fill="#F3FEFA"/>
</svg>
