<svg width="67" height="109" viewBox="0 0 67 109" fill="none" xmlns="http://www.w3.org/2000/svg">
<path fill-rule="evenodd" clip-rule="evenodd" d="M8.77931 70.0528C8.77931 70.3415 8.98619 70.5755 9.24138 70.5755H15.2483C15.5035 70.5755 15.7103 70.3415 15.7103 70.0528V55.4149C15.7103 55.1261 15.5035 54.8921 15.2483 54.8921H9.24138C8.98619 54.8921 8.77931 55.1261 8.77931 55.4149V70.0528ZM10.1655 64.3022V69.0072H14.3241V64.3022H10.1655ZM10.1655 62.7338H14.3241V56.4604H10.1655V62.7338Z" fill="black"/>
<path fill-rule="evenodd" clip-rule="evenodd" d="M8.77931 50.187V35.5492C8.77931 35.2604 8.98619 35.0264 9.24138 35.0264H15.2483C15.5035 35.0264 15.7103 35.2604 15.7103 35.5492V50.187C15.7103 50.4758 15.5035 50.7098 15.2483 50.7098H9.24138C8.98619 50.7098 8.77931 50.4758 8.77931 50.187ZM10.1655 49.1415V44.4365H14.3241V49.1415H10.1655ZM10.1655 36.5947V42.8681H14.3241V36.5947H10.1655Z" fill="black"/>
<path fill-rule="evenodd" clip-rule="evenodd" d="M8.77931 30.3213C8.77931 30.6101 8.98619 30.8441 9.24138 30.8441H15.2483C15.5035 30.8441 15.7103 30.6101 15.7103 30.3213V15.6835C15.7103 15.3947 15.5035 15.1607 15.2483 15.1607H9.24138C8.98619 15.1607 8.77931 15.3947 8.77931 15.6835V30.3213ZM10.1655 24.5707V29.2758H14.3241V24.5707H10.1655ZM10.1655 23.0024V16.729H14.3241V23.0024H10.1655Z" fill="black"/>
<path fill-rule="evenodd" clip-rule="evenodd" d="M22.6414 55.4149C22.6414 55.1261 22.8483 54.8921 23.1034 54.8921H29.1103C29.3655 54.8921 29.5724 55.1261 29.5724 55.4149V70.0528C29.5724 70.3415 29.3655 70.5755 29.1103 70.5755H23.1034C22.8483 70.5755 22.6414 70.3415 22.6414 70.0528V55.4149ZM24.0276 69.0072H28.1862V64.3022H24.0276V69.0072ZM24.0276 62.7338V56.4604H28.1862V62.7338H24.0276Z" fill="black"/>
<path fill-rule="evenodd" clip-rule="evenodd" d="M22.6414 50.187V35.5492C22.6414 35.2604 22.8483 35.0264 23.1034 35.0264H29.1103C29.3655 35.0264 29.5724 35.2604 29.5724 35.5492V50.187C29.5724 50.4758 29.3655 50.7098 29.1103 50.7098H23.1034C22.8483 50.7098 22.6414 50.4758 22.6414 50.187ZM24.0276 49.1415V44.4365H28.1862V49.1415H24.0276ZM24.0276 36.5947V42.8681H28.1862V36.5947H24.0276Z" fill="black"/>
<path fill-rule="evenodd" clip-rule="evenodd" d="M22.6414 30.3213C22.6414 30.6101 22.8483 30.8441 23.1034 30.8441H29.1103C29.3655 30.8441 29.5724 30.6101 29.5724 30.3213V15.6835C29.5724 15.3947 29.3655 15.1607 29.1103 15.1607H23.1034C22.8483 15.1607 22.6414 15.3947 22.6414 15.6835V30.3213ZM24.0276 24.5707V29.2758H28.1862V24.5707H24.0276ZM24.0276 23.0024V16.729H28.1862V23.0024H24.0276Z" fill="black"/>
<path fill-rule="evenodd" clip-rule="evenodd" d="M36.9655 55.4149C36.9655 55.1261 37.1724 54.8921 37.4276 54.8921H43.4345C43.6897 54.8921 43.8966 55.1261 43.8966 55.4149V70.0528C43.8966 70.3415 43.6897 70.5755 43.4345 70.5755H37.4276C37.1724 70.5755 36.9655 70.3415 36.9655 70.0528V55.4149ZM38.3517 69.0072H42.5103V64.3022H38.3517V69.0072ZM38.3517 62.7338V56.4604H42.5103V62.7338H38.3517Z" fill="black"/>
<path fill-rule="evenodd" clip-rule="evenodd" d="M36.9655 50.187V35.5492C36.9655 35.2604 37.1724 35.0264 37.4276 35.0264H43.4345C43.6897 35.0264 43.8966 35.2604 43.8966 35.5492V50.187C43.8966 50.4758 43.6897 50.7098 43.4345 50.7098H37.4276C37.1724 50.7098 36.9655 50.4758 36.9655 50.187ZM38.3517 49.1415V44.4365H42.5103V49.1415H38.3517ZM38.3517 36.5947V42.8681H42.5103V36.5947H38.3517Z" fill="black"/>
<path fill-rule="evenodd" clip-rule="evenodd" d="M36.9655 30.3213C36.9655 30.6101 37.1724 30.8441 37.4276 30.8441H43.4345C43.6897 30.8441 43.8966 30.6101 43.8966 30.3213V15.6835C43.8966 15.3947 43.6897 15.1607 43.4345 15.1607H37.4276C37.1724 15.1607 36.9655 15.3947 36.9655 15.6835V30.3213ZM38.3517 24.5707V29.2758H42.5103V24.5707H38.3517ZM38.3517 23.0024V16.729H42.5103V23.0024H38.3517Z" fill="black"/>
<path fill-rule="evenodd" clip-rule="evenodd" d="M50.8276 55.4149C50.8276 55.1261 51.0345 54.8921 51.2897 54.8921H57.2966C57.5517 54.8921 57.7586 55.1261 57.7586 55.4149V70.0528C57.7586 70.3415 57.5517 70.5755 57.2966 70.5755H51.2897C51.0345 70.5755 50.8276 70.3415 50.8276 70.0528V55.4149ZM52.2138 69.0072H56.3724V64.3022H52.2138V69.0072ZM52.2138 62.7338V56.4604H56.3724V62.7338H52.2138Z" fill="black"/>
<path fill-rule="evenodd" clip-rule="evenodd" d="M50.8276 50.187V35.5492C50.8276 35.2604 51.0345 35.0264 51.2897 35.0264H57.2966C57.5517 35.0264 57.7586 35.2604 57.7586 35.5492V50.187C57.7586 50.4758 57.5517 50.7098 57.2966 50.7098H51.2897C51.0345 50.7098 50.8276 50.4758 50.8276 50.187ZM52.2138 49.1415V44.4365H56.3724V49.1415H52.2138ZM52.2138 36.5947V42.8681H56.3724V36.5947H52.2138Z" fill="black"/>
<path fill-rule="evenodd" clip-rule="evenodd" d="M50.8276 30.3213C50.8276 30.6101 51.0345 30.8441 51.2897 30.8441H57.2966C57.5517 30.8441 57.7586 30.6101 57.7586 30.3213V15.6835C57.7586 15.3947 57.5517 15.1607 57.2966 15.1607H51.2897C51.0345 15.1607 50.8276 15.3947 50.8276 15.6835V30.3213ZM52.2138 24.5707V29.2758H56.3724V24.5707H52.2138ZM52.2138 23.0024V16.729H56.3724V23.0024H52.2138Z" fill="black"/>
<path fill-rule="evenodd" clip-rule="evenodd" d="M0.47527 9.93285H3.69655V80.1127C3.65448 80.1538 3.61867 80.2038 3.5915 80.2611L0.365577 87.0572C0.200261 87.4055 0.423244 87.8273 0.772656 87.8273H3.69655V107.432H0.231034V109H67V107.432H62.8414V87.8273H66.2274C66.5768 87.8273 66.7998 87.4055 66.6345 87.0572L63.4085 80.2611C63.328 80.0914 63.1716 79.9856 63.0015 79.9856H62.8414V9.93285H66.0627C66.3251 9.93285 66.5379 9.6988 66.5379 9.41007V0.522782C66.5379 0.234057 66.3251 0 66.0627 0H0.475271C0.212786 0 0 0.234057 0 0.522782V9.41007C0 9.6988 0.212785 9.93285 0.47527 9.93285ZM1.42581 1.56835V8.36451H65.1121V1.56835H1.42581ZM5.08276 79.9856V9.93285H61.4552V79.9856H57.2966V74.235C57.2966 73.9463 57.0897 73.7122 56.8345 73.7122H9.70345C9.44825 73.7122 9.24138 73.9463 9.24138 74.235V79.9856H5.08276ZM4.55126 81.554L2.31792 86.259H64.6821L62.4488 81.554H4.55126ZM5.08276 87.8273V107.17H28.6483V87.8273H26.3379V104.556C26.3379 104.845 26.1311 105.079 25.8759 105.079H7.3931C7.13791 105.079 6.93103 104.845 6.93103 104.556V87.8273H5.08276ZM8.31724 87.8273V103.511H24.9517V87.8273H8.31724ZM30.0345 87.8273V104.034H36.5034V87.8273H30.0345ZM37.8897 87.8273V107.17H61.4552V87.8273H59.6069V104.556C59.6069 104.845 59.4 105.079 59.1448 105.079H40.6621C40.4069 105.079 40.2 104.845 40.2 104.556V87.8273H37.8897ZM41.5862 87.8273V103.511H58.2207V87.8273H41.5862ZM10.6276 79.9856H55.9103V75.2806H10.6276V79.9856ZM36.5034 107.17H30.0345V105.602H36.5034V107.17Z" fill="black"/>
</svg>
