<svg width="60" height="60" viewBox="0 0 60 60" fill="none" xmlns="http://www.w3.org/2000/svg">
<path d="M22.79 35.4673C13.905 36.6373 7.5 39.8998 7.5 43.7498C7.5 48.5823 17.5725 52.4998 30 52.4998C42.4275 52.4998 52.5 48.5823 52.5 43.7498C52.5 39.8998 46.095 36.6373 37.21 35.4673" stroke="#00AC4F" stroke-width="1.5" stroke-linecap="round" stroke-linejoin="round"/>
<path fill-rule="evenodd" clip-rule="evenodd" d="M45 19.5825C45 11.53 38.285 5 30 5C21.715 5 15 11.53 15 19.5825C15 30.52 30 42.5 30 42.5C30 42.5 45 30.52 45 19.5825Z" stroke="#00AC4F" stroke-width="1.5" stroke-linecap="round" stroke-linejoin="round"/>
<path d="M33.5355 16.4645C35.4883 18.4171 35.4883 21.5829 33.5355 23.5355C31.583 25.4882 28.417 25.4882 26.4645 23.5355C24.5118 21.5829 24.5118 18.4171 26.4645 16.4645C28.417 14.5118 31.583 14.5118 33.5355 16.4645Z" stroke="#00AC4F" stroke-width="1.5" stroke-linecap="round" stroke-linejoin="round"/>
</svg>
